# File produced by Open Asset Import Library (http://www.assimp.sf.net)
# (assimp v3.2.202087883)

mtllib model_normalized.mtl

# 165 vertex positions
v 0.229845 -0.283025 0.173710
v 0.220200 -0.283025 0.050003
v 0.233166 -0.283025 0.111222
v 0.210463 -0.283025 0.233209
v 0.233166 0.266007 0.111222
v 0.229845 0.266007 0.173710
v 0.210463 0.266007 0.233209
v 0.191832 -0.283025 -0.005774
v 0.220200 0.266007 0.050003
v 0.176344 0.266007 0.285664
v 0.176344 -0.283025 0.285664
v 0.197543 0.266007 0.143758
v 0.149996 -0.283025 -0.052308
v 0.191832 0.266007 -0.005774
v 0.129809 -0.283025 0.327502
v 0.186628 0.266007 0.195396
v 0.129809 0.266007 0.327502
v 0.186628 -0.218427 0.195396
v 0.162720 0.266007 0.242448
v 0.194721 0.266007 0.091055
v 0.097540 -0.283025 -0.086429
v 0.149996 0.266007 -0.052308
v 0.074032 -0.283025 0.355870
v 0.197543 -0.218427 0.143758
v 0.162720 -0.218427 0.242448
v 0.178355 0.266007 0.040880
v 0.097540 0.266007 -0.086429
v 0.127450 0.266007 0.281710
v 0.074032 0.266007 0.355870
v 0.194721 -0.218427 0.091055
v 0.178355 -0.218427 0.040880
v 0.127450 -0.218427 0.281710
v 0.038041 -0.283025 -0.105809
v 0.038041 0.266007 -0.105809
v 0.149560 0.266007 -0.003351
v 0.012814 -0.283025 0.368835
v 0.149560 -0.218427 -0.003351
v 0.063245 0.266007 -0.062529
v 0.110298 0.266007 -0.038623
v 0.083219 0.266007 0.310505
v 0.012814 0.266007 0.368835
v 0.110298 -0.218427 -0.038623
v -0.024447 -0.283025 -0.109131
v -0.024447 0.266007 -0.109131
v 0.011608 0.266007 -0.073444
v 0.083219 -0.218427 0.310505
v 0.033043 0.266007 0.326871
v -0.049674 -0.283025 0.365513
v 0.063245 -0.218427 -0.062529
v 0.011608 -0.218427 -0.073444
v -0.019660 0.266007 0.329693
v -0.049674 0.266007 0.365513
v -0.085666 -0.283025 -0.096166
v -0.085666 0.266007 -0.096166
v -0.041094 0.266007 -0.070622
v -0.041094 -0.218427 -0.070622
v 0.033043 -0.218427 0.326871
v -0.109174 -0.283025 0.346132
v -0.019660 -0.218427 0.329693
v -0.071297 0.266007 0.318778
v -0.109174 0.266007 0.346132
v -0.141443 -0.283025 -0.067798
v -0.141443 0.266007 -0.067798
v -0.091271 0.266007 -0.054256
v -0.091271 -0.218427 -0.054256
v -0.071297 -0.218427 0.318778
v -0.161629 -0.283025 0.312012
v -0.118349 0.266007 0.294871
v -0.161629 0.266007 0.312012
v -0.187977 -0.283025 -0.025960
v -0.187977 0.266007 -0.025960
v -0.135501 0.266007 -0.025461
v -0.135501 -0.218427 -0.025461
v -0.118349 -0.218427 0.294871
v -0.203467 0.266007 0.265478
v -0.203467 -0.283025 0.265478
v -0.170772 0.266007 0.013801
v -0.157611 0.266007 0.259600
v -0.186406 0.266007 0.215369
v -0.222097 -0.283025 0.026495
v -0.194680 0.266007 0.060853
v -0.157611 -0.218427 0.259600
v -0.231834 0.266007 0.209701
v -0.202772 0.266007 0.165193
v -0.231834 -0.283025 0.209701
v -0.222097 0.266007 0.026495
v -0.170772 -0.218427 0.013801
v -0.186406 -0.218427 0.215369
v -0.205594 0.266007 0.112490
v -0.202772 -0.218427 0.165193
v -0.241479 -0.283025 0.085995
v -0.194680 -0.218427 0.060853
v -0.244799 0.266007 0.148482
v -0.205594 -0.218427 0.112490
v -0.244799 -0.283025 0.148482
v -0.241479 0.266007 0.085995
v -0.014343 0.112607 -0.077426
v 0.028661 0.112607 -0.088633
v 0.028661 0.112607 -0.077426
v -0.014343 0.112607 -0.088633
v 0.028661 0.146500 -0.077426
v -0.014343 0.146500 -0.088633
v -0.014343 0.126879 -0.131766
v 0.028661 0.146500 -0.088633
v -0.014343 0.146500 -0.077426
v -0.014343 0.153106 -0.108594
v 0.028661 0.126879 -0.131766
v -0.014343 0.159182 -0.126960
v 0.028661 0.152350 -0.106308
v 0.028661 0.159182 -0.126960
v -0.014343 0.125783 -0.177185
v 0.028661 0.125783 -0.177185
v -0.014343 0.157815 -0.183546
v 0.028661 0.157815 -0.183546
v -0.014343 0.109445 -0.219579
v 0.028661 0.109445 -0.219579
v -0.014343 0.137461 -0.236361
v 0.028661 0.137461 -0.236361
v -0.014343 0.079777 -0.253988
v 0.028661 0.079777 -0.253988
v -0.014343 0.040248 -0.276386
v 0.028661 0.040248 -0.276386
v -0.014343 0.100499 -0.279229
v 0.028661 0.100499 -0.279229
v -0.014343 -0.004515 -0.284156
v 0.028661 -0.004515 -0.284156
v -0.014343 0.051253 -0.307134
v 0.028661 -0.060283 -0.307134
v -0.014343 -0.109529 -0.279229
v 0.028661 -0.049278 -0.276386
v 0.028661 0.051253 -0.307134
v 0.028661 -0.109529 -0.279229
v -0.014343 -0.060283 -0.307134
v -0.014343 -0.049278 -0.276386
v -0.014343 -0.004515 -0.316814
v 0.028661 -0.004515 -0.316814
v -0.014343 -0.146491 -0.236361
v 0.028661 -0.088806 -0.253988
v 0.028661 -0.146491 -0.236361
v -0.014343 -0.088806 -0.253988
v -0.014343 -0.118475 -0.219579
v 0.028661 -0.118475 -0.219579
v 0.028661 -0.156668 -0.209953
v -0.014343 -0.166845 -0.183546
v 0.028661 -0.166845 -0.183546
v 0.028661 -0.134812 -0.177185
v -0.014343 -0.126643 -0.198382
v -0.014343 -0.134812 -0.177185
v 0.028661 -0.168212 -0.126960
v 0.028661 -0.135909 -0.131766
v -0.014343 -0.135909 -0.131766
v -0.014343 -0.168212 -0.126960
v 0.028661 -0.121637 -0.088633
v -0.014343 -0.162135 -0.108594
v -0.014343 -0.121637 -0.088633
v 0.028661 -0.161379 -0.106308
v -0.014343 -0.155530 -0.088633
v 0.028661 -0.121637 -0.079977
v 0.028661 -0.155530 -0.088633
v -0.014343 -0.155530 -0.079977
v -0.014343 -0.121637 -0.079977
v 0.028661 -0.155530 -0.079977
v -0.014343 0.143156 -0.078525
v -0.014343 -0.152186 -0.078525
v 0.028661 -0.152186 -0.078525

# 0 UV coordinates

# 84 vertex normals
vn 0 -0.0254 0
vn 0.0239494 0 -0.00846097
vn 0.0253232 0 -0.00197411
vn 0.0249712 0 0.00464726
vn 0.0229176 0 0.0109519
vn 0.0193021 0 0.0165103
vn 0.0209434 0 -0.0143712
vn 0 0.0254 0
vn 0.0143712 0 0.0209434
vn 0.0165103 0 -0.0193021
vn -0.0253239 0 -0.00196418
vn -0.0239527 0 -0.00845157
vn 0.00846097 0 0.0239494
vn -0.0209491 0 -0.014363
vn -0.0249694 0 0.00465706
vn 0.0109519 0 -0.0229176
vn -0.0165178 0 -0.0192956
vn -0.0229133 0 0.0109609
vn 0.00464726 0 -0.0249712
vn 0.00197411 0 0.0253232
vn -0.0192956 0 0.0165178
vn -0.0109609 0 -0.0229133
vn -0.00197411 0 -0.0253232
vn -0.014363 0 0.0209491
vn -0.00464726 0 0.0249712
vn -0.00845157 0 0.0239527
vn -0.00196418 0 0.0253239
vn -0.00465706 0 -0.0249694
vn -0.00846097 0 -0.0239494
vn 0.00465706 0 0.0249694
vn 0.00196418 0 -0.0253239
vn -0.0109519 0 0.0229176
vn -0.0143712 0 -0.0209434
vn 0.0109609 0 0.0229133
vn 0.00845157 0 -0.0239527
vn -0.0165103 0 0.0193021
vn -0.0193021 0 -0.0165103
vn 0.0165178 0 0.0192956
vn 0.014363 0 -0.0209491
vn -0.0209434 0 0.0143712
vn -0.0229176 0 -0.0109519
vn 0.0209491 0 0.014363
vn 0.0192956 0 -0.0165178
vn -0.0239494 0 0.00846097
vn 0.0239527 0 0.00845157
vn 0.0229133 0 -0.0109609
vn 0.0249694 0 -0.00465706
vn -0.0249712 0 -0.00464726
vn -0.0253232 0 0.00197411
vn 0.0253239 0 0.00196418
vn -0.0254 0 0
vn 0 0 0.0254
vn 0 -0 -0.0254
vn 0.0254 0 0
vn 0 0.0241142 0.00797908
vn 0 0.0251234 0.00373791
vn 0 -0.0241142 -0.00797908
vn 0 0.0249137 -0.0049466
vn 0 0.0217897 -0.0130525
vn 0 0.016117 -0.0196317
vn 0 0.00855909 -0.0239145
vn -0 -0.00855909 -0.0239145
vn -0 -0.016117 -0.0196317
vn -0 -0.0217897 -0.0130525
vn -0 -0.0249137 -0.0049466
vn -0 -0.0237008 -0.00913409
vn 0 -0.0251234 0.00373791
vn 0 -0.0241142 0.00797908
vn 0 0.0241142 -0.00797908
vn 0 -0.0251234 -0.00373791
vn 0 -0.0249137 0.0049466
vn 0 -0.00373791 0.0251234
vn 0 0.00373791 -0.0251234
vn 0 -0.0217897 0.0130525
vn 0 -0.016117 0.0196317
vn 0 -0.00855909 0.0239145
vn 0 0.00855909 0.0239145
vn 0 0.016117 0.0196317
vn 0 0.0217897 0.0130525
vn 0 0.0237008 0.00913409
vn 0 0.0249137 0.0049466
vn 0 0.00373791 0.0251234
vn -0 -0.00373791 -0.0251234
vn 0 0.0251234 -0.00373791

# Mesh 'mesh1_mesh1-geometry' with 188 faces
g mesh1_mesh1-geometry
usemtl material_0_24
f  1//1 2//1 3//1
f  2//1 1//1 4//1
f  2//2 5//3 3//3
f  3//3 6//4 1//4
f  1//4 7//5 4//5
f  2//1 4//1 8//1
f  5//3 2//2 9//2
f  6//4 3//3 5//3
f  7//5 1//4 6//4
f  10//6 4//5 7//5
f  8//1 4//1 11//1
f  8//7 9//2 2//2
f  9//8 6//8 5//8
f  6//8 9//8 7//8
f  4//5 10//6 11//6
f  12//8 10//8 7//8
f  8//1 11//1 13//1
f  9//2 8//7 14//7
f  7//8 9//8 14//8
f  10//6 15//9 11//6
f  10//8 12//8 16//8
f  7//8 14//8 12//8
f  13//1 11//1 15//1
f  13//10 14//7 8//7
f  15//9 10//6 17//9
f  12//11 18//12 16//12
f  10//8 16//8 19//8
f  12//8 14//8 20//8
f  13//1 15//1 21//1
f  14//7 13//10 22//10
f  10//8 19//8 17//8
f  17//9 23//13 15//9
f  18//12 12//11 24//11
f  25//14 16//12 18//12
f  16//12 25//14 19//14
f  20//8 14//8 26//8
f  20//15 24//11 12//11
f  21//1 15//1 23//1
f  27//16 13//10 21//16
f  13//10 27//16 22//10
f  26//8 14//8 22//8
f  17//8 19//8 28//8
f  23//13 17//9 29//13
f  30//8 18//8 24//8
f  18//8 31//8 25//8
f  32//17 19//14 25//14
f  26//18 30//15 20//15
f  24//11 20//15 30//15
f  21//1 23//1 33//1
f  21//16 34//19 27//16
f  35//8 22//8 27//8
f  26//8 22//8 35//8
f  19//14 32//17 28//17
f  17//8 28//8 29//8
f  29//13 36//20 23//13
f  18//8 30//8 31//8
f  25//8 31//8 37//8
f  25//8 37//8 32//8
f  30//15 26//18 31//18
f  33//1 23//1 36//1
f  34//19 21//16 33//19
f  38//8 27//8 34//8
f  35//8 27//8 39//8
f  35//21 31//18 26//18
f  32//17 40//22 28//17
f  29//8 28//8 40//8
f  36//20 29//13 41//20
f  31//18 35//21 37//21
f  32//8 37//8 42//8
f  33//1 36//1 43//1
f  33//19 44//23 34//19
f  39//8 27//8 38//8
f  38//8 34//8 45//8
f  42//24 35//21 39//24
f  40//22 32//17 46//22
f  29//8 40//8 47//8
f  29//8 47//8 41//8
f  41//20 48//25 36//20
f  35//21 42//24 37//21
f  32//8 42//8 46//8
f  43//1 36//1 48//1
f  44//23 33//19 43//23
f  45//8 34//8 44//8
f  49//26 39//24 38//26
f  50//27 38//26 45//27
f  39//24 49//26 42//24
f  46//22 47//28 40//22
f  41//8 47//8 51//8
f  48//25 41//20 52//25
f  46//8 42//8 49//8
f  43//1 48//1 53//1
f  43//23 54//29 44//23
f  45//8 44//8 55//8
f  38//26 50//27 49//26
f  45//27 56//30 50//27
f  47//28 46//22 57//28
f  57//28 51//31 47//28
f  41//8 51//8 52//8
f  52//25 58//32 48//25
f  46//8 49//8 57//8
f  53//1 48//1 58//1
f  54//29 43//23 53//29
f  55//8 44//8 54//8
f  56//30 45//27 55//30
f  57//8 49//8 50//8
f  59//8 50//8 56//8
f  51//31 57//28 59//31
f  52//8 51//8 60//8
f  58//32 52//25 61//32
f  53//1 58//1 62//1
f  53//29 63//33 54//29
f  55//8 54//8 64//8
f  55//30 65//34 56//30
f  57//8 50//8 59//8
f  59//8 56//8 66//8
f  59//31 60//35 51//31
f  52//8 60//8 61//8
f  61//32 67//36 58//32
f  62//1 58//1 67//1
f  63//33 53//29 62//33
f  64//8 54//8 63//8
f  65//34 55//30 64//34
f  66//8 56//8 65//8
f  60//35 59//31 66//35
f  61//8 60//8 68//8
f  67//36 61//32 69//36
f  62//1 67//1 70//1
f  62//33 71//37 63//33
f  64//8 63//8 72//8
f  64//34 73//38 65//34
f  66//8 65//8 74//8
f  66//35 68//39 60//35
f  61//8 68//8 69//8
f  75//40 67//36 69//36
f  70//1 67//1 76//1
f  71//37 62//33 70//37
f  77//8 63//8 71//8
f  72//8 63//8 77//8
f  73//38 64//34 72//38
f  74//8 65//8 73//8
f  68//39 66//35 74//39
f  69//8 68//8 78//8
f  67//36 75//40 76//40
f  69//8 79//8 75//8
f  70//1 76//1 80//1
f  80//41 71//37 70//37
f  77//8 71//8 81//8
f  77//42 73//38 72//38
f  74//8 73//8 82//8
f  74//39 78//43 68//39
f  69//8 78//8 79//8
f  83//44 76//40 75//40
f  75//8 79//8 84//8
f  80//1 76//1 85//1
f  71//37 80//41 86//41
f  81//8 71//8 86//8
f  81//45 87//42 77//42
f  73//38 77//42 87//42
f  82//8 73//8 87//8
f  78//43 74//39 82//43
f  78//43 88//46 79//46
f  76//40 83//44 85//44
f  75//8 89//8 83//8
f  79//46 90//47 84//47
f  75//8 84//8 89//8
f  80//1 85//1 91//1
f  91//48 86//41 80//41
f  81//8 86//8 89//8
f  87//42 81//45 92//45
f  82//8 87//8 88//8
f  88//46 78//43 82//43
f  90//47 79//46 88//46
f  93//49 85//44 83//44
f  83//8 89//8 86//8
f  94//50 84//47 90//47
f  84//47 94//50 89//50
f  91//1 85//1 95//1
f  86//41 91//48 96//48
f  89//50 92//45 81//45
f  88//8 87//8 92//8
f  88//8 92//8 90//8
f  85//44 93//49 95//49
f  83//8 96//8 93//8
f  83//8 86//8 96//8
f  90//8 92//8 94//8
f  92//45 89//50 94//50
f  95//49 96//48 91//48
f  96//48 95//49 93//49

# Mesh 'mesh1_mesh1-geometry' with 188 faces
g mesh1_mesh1-geometry
usemtl material_1_24
f  3//8 2//8 1//8
f  4//8 1//8 2//8
f  3//49 5//49 2//44
f  1//48 6//48 3//49
f  4//41 7//41 1//48
f  8//8 4//8 2//8
f  9//44 2//44 5//49
f  5//49 3//49 6//48
f  6//48 1//48 7//41
f  7//41 4//41 10//37
f  11//8 4//8 8//8
f  2//44 9//44 8//40
f  5//1 6//1 9//1
f  7//1 9//1 6//1
f  11//37 10//37 4//41
f  7//1 10//1 12//1
f  13//8 11//8 8//8
f  14//40 8//40 9//44
f  14//1 9//1 7//1
f  11//37 15//33 10//37
f  16//1 12//1 10//1
f  12//1 14//1 7//1
f  15//8 11//8 13//8
f  8//40 14//40 13//36
f  17//33 10//37 15//33
f  16//45 18//45 12//50
f  19//1 16//1 10//1
f  20//1 14//1 12//1
f  21//8 15//8 13//8
f  22//36 13//36 14//40
f  17//1 19//1 10//1
f  15//33 23//29 17//33
f  24//50 12//50 18//45
f  18//45 16//45 25//42
f  19//42 25//42 16//45
f  26//1 14//1 20//1
f  12//50 24//50 20//47
f  23//8 15//8 21//8
f  21//32 13//36 27//32
f  22//36 27//32 13//36
f  22//1 14//1 26//1
f  28//1 19//1 17//1
f  29//29 17//33 23//29
f  24//1 18//1 30//1
f  25//1 31//1 18//1
f  25//42 19//42 32//38
f  20//47 30//47 26//46
f  30//47 20//47 24//50
f  33//8 23//8 21//8
f  27//32 34//25 21//32
f  27//1 22//1 35//1
f  35//1 22//1 26//1
f  28//38 32//38 19//42
f  29//1 28//1 17//1
f  23//29 36//23 29//29
f  31//1 30//1 18//1
f  37//1 31//1 25//1
f  32//1 37//1 25//1
f  31//46 26//46 30//47
f  36//8 23//8 33//8
f  33//25 21//32 34//25
f  34//1 27//1 38//1
f  39//1 27//1 35//1
f  26//46 31//46 35//43
f  28//38 40//34 32//38
f  40//1 28//1 29//1
f  41//23 29//29 36//23
f  37//43 35//43 31//46
f  42//1 37//1 32//1
f  43//8 36//8 33//8
f  34//25 44//20 33//25
f  38//1 27//1 39//1
f  45//1 34//1 38//1
f  39//39 35//43 42//39
f  46//34 32//38 40//34
f  47//1 40//1 29//1
f  41//1 47//1 29//1
f  36//23 48//19 41//23
f  37//43 42//39 35//43
f  46//1 42//1 32//1
f  48//8 36//8 43//8
f  43//20 33//25 44//20
f  44//1 34//1 45//1
f  38//35 39//39 49//35
f  45//31 38//35 50//31
f  42//39 49//35 39//39
f  40//34 47//30 46//34
f  51//1 47//1 41//1
f  52//19 41//23 48//19
f  49//1 42//1 46//1
f  53//8 48//8 43//8
f  44//20 54//13 43//20
f  55//1 44//1 45//1
f  49//35 50//31 38//35
f  50//31 56//28 45//31
f  57//30 46//34 47//30
f  47//30 51//27 57//30
f  52//1 51//1 41//1
f  48//19 58//16 52//19
f  57//1 49//1 46//1
f  58//8 48//8 53//8
f  53//13 43//20 54//13
f  54//1 44//1 55//1
f  55//28 45//31 56//28
f  50//1 49//1 57//1
f  56//1 50//1 59//1
f  59//27 57//30 51//27
f  60//1 51//1 52//1
f  61//16 52//19 58//16
f  62//8 58//8 53//8
f  54//13 63//9 53//13
f  64//1 54//1 55//1
f  56//28 65//22 55//28
f  59//1 50//1 57//1
f  66//1 56//1 59//1
f  51//27 60//26 59//27
f  61//1 60//1 52//1
f  58//16 67//10 61//16
f  67//8 58//8 62//8
f  62//9 53//13 63//9
f  63//1 54//1 64//1
f  64//22 55//28 65//22
f  65//1 56//1 66//1
f  66//26 59//27 60//26
f  68//1 60//1 61//1
f  69//10 61//16 67//10
f  70//8 67//8 62//8
f  63//9 71//6 62//9
f  72//1 63//1 64//1
f  65//22 73//17 64//22
f  74//1 65//1 66//1
f  60//26 68//24 66//26
f  69//1 68//1 61//1
f  69//10 67//10 75//7
f  76//8 67//8 70//8
f  70//6 62//9 71//6
f  71//1 63//1 77//1
f  77//1 63//1 72//1
f  72//17 64//22 73//17
f  73//1 65//1 74//1
f  74//24 66//26 68//24
f  78//1 68//1 69//1
f  76//7 75//7 67//10
f  75//1 79//1 69//1
f  80//8 76//8 70//8
f  70//6 71//6 80//5
f  81//1 71//1 77//1
f  72//17 73//17 77//14
f  82//1 73//1 74//1
f  68//24 78//21 74//24
f  79//1 78//1 69//1
f  75//7 76//7 83//2
f  84//1 79//1 75//1
f  85//8 76//8 80//8
f  86//5 80//5 71//6
f  86//1 71//1 81//1
f  77//14 87//14 81//12
f  87//14 77//14 73//17
f  87//1 73//1 82//1
f  82//21 74//24 78//21
f  79//18 88//18 78//21
f  85//2 83//2 76//7
f  83//1 89//1 75//1
f  84//15 90//15 79//18
f  89//1 84//1 75//1
f  91//8 85//8 80//8
f  80//5 86//5 91//4
f  89//1 86//1 81//1
f  92//12 81//12 87//14
f  88//1 87//1 82//1
f  82//21 78//21 88//18
f  88//18 79//18 90//15
f  83//2 85//2 93//3
f  86//1 89//1 83//1
f  90//15 84//15 94//11
f  89//11 94//11 84//15
f  95//8 85//8 91//8
f  96//4 91//4 86//5
f  81//12 92//12 89//11
f  92//1 87//1 88//1
f  90//1 92//1 88//1
f  95//3 93//3 85//2
f  93//1 96//1 83//1
f  96//1 86//1 83//1
f  94//1 92//1 90//1
f  94//11 89//11 92//12
f  91//4 96//4 95//3
f  93//3 95//3 96//4

# Mesh 'mesh2_mesh2-geometry' with 119 faces
g mesh2_mesh2-geometry
usemtl material_1_24
f  97//1 98//1 99//1
f  98//1 97//1 100//1
f  99//8 98//8 97//8
f  100//8 97//8 98//8
f  99//51 101//51 98//51
f  101//52 97//52 99//52
f  99//53 97//53 101//53
f  97//54 100//54 102//54
f  98//55 103//56 100//55
f  101//51 104//51 98//51
f  97//52 101//52 105//52
f  105//53 101//53 97//53
f  102//54 100//54 106//54
f  105//54 97//54 102//54
f  103//56 98//55 107//56
f  100//54 103//54 108//54
f  104//51 109//51 98//51
f  102//8 101//8 104//8
f  104//1 101//1 102//1
f  101//8 102//8 105//8
f  105//1 102//1 101//1
f  106//54 100//54 108//54
f  104//55 106//55 102//55
f  102//57 106//57 104//57
f  98//51 110//51 107//51
f  107//56 111//58 103//56
f  103//54 111//54 108//54
f  109//51 110//51 98//51
f  106//55 104//55 109//55
f  109//57 104//57 106//57
f  107//51 110//51 112//51
f  111//58 107//56 112//58
f  108//54 111//54 113//54
f  110//51 114//51 112//51
f  112//58 115//59 111//58
f  111//54 115//54 113//54
f  112//51 114//51 116//51
f  115//59 112//58 116//59
f  113//54 115//54 117//54
f  114//51 118//51 116//51
f  116//59 119//60 115//59
f  115//54 119//54 117//54
f  116//51 118//51 120//51
f  119//60 116//59 120//60
f  119//54 121//54 117//54
f  120//51 118//51 122//51
f  122//61 119//60 120//60
f  117//54 121//54 123//54
f  119//60 122//61 121//61
f  118//51 124//51 122//51
f  121//54 125//54 123//54
f  126//53 121//61 122//61
f  122//51 124//51 126//51
f  127//54 123//54 125//54
f  121//61 126//53 125//53
f  126//51 124//51 128//51
f  125//54 129//54 127//54
f  130//62 125//53 126//53
f  124//51 131//51 128//51
f  128//51 132//51 126//51
f  129//54 133//54 127//54
f  134//54 129//54 125//54
f  125//53 130//62 134//62
f  130//51 126//51 132//51
f  135//54 127//54 133//54
f  136//51 128//51 131//51
f  137//54 129//54 134//54
f  138//63 134//62 130//62
f  139//51 130//51 132//51
f  140//54 137//54 134//54
f  134//62 138//63 140//63
f  138//51 130//51 139//51
f  141//54 137//54 140//54
f  138//63 141//64 140//63
f  142//51 138//51 139//51
f  143//51 142//51 139//51
f  144//54 137//54 141//54
f  141//64 138//63 142//64
f  145//51 146//51 143//51
f  146//51 142//51 143//51
f  147//54 144//54 141//54
f  142//64 148//65 141//64
f  149//51 146//51 145//51
f  148//65 142//64 146//65
f  148//54 144//54 147//54
f  141//64 148//65 147//66
f  150//51 146//51 149//51
f  146//65 151//67 148//65
f  152//54 144//54 148//54
f  151//67 146//65 150//67
f  153//51 150//51 149//51
f  151//54 152//54 148//54
f  154//54 152//54 155//54
f  150//67 155//68 151//67
f  155//68 150//67 153//68
f  156//51 153//51 149//51
f  155//54 152//54 151//54
f  156//68 157//68 154//68
f  154//69 157//69 156//69
f  157//54 154//54 155//54
f  155//8 158//8 153//8
f  153//1 158//1 155//1
f  159//51 153//51 156//51
f  157//68 156//68 159//68
f  159//69 156//69 157//69
f  160//54 157//54 155//54
f  158//8 155//8 161//8
f  161//1 155//1 158//1
f  158//51 153//51 159//51
f  159//1 160//1 157//1
f  157//8 160//8 159//8
f  161//54 160//54 155//54
f  160//52 158//52 161//52
f  161//53 158//53 160//53
f  162//51 158//51 159//51
f  160//1 159//1 162//1
f  162//8 159//8 160//8
f  158//52 160//52 162//52
f  162//53 160//53 158//53

# Mesh 'mesh2_mesh2-geometry' with 137 faces
g mesh2_mesh2-geometry
usemtl material_0_24
f  98//54 101//54 99//54
f  102//51 100//51 97//51
f  100//57 103//70 98//57
f  98//54 104//54 101//54
f  106//51 100//51 102//51
f  102//51 97//51 105//51
f  107//70 98//57 103//70
f  108//51 103//51 100//51
f  98//54 109//54 104//54
f  108//51 100//51 106//51
f  107//54 110//54 98//54
f  103//70 111//71 107//70
f  108//51 111//51 103//51
f  98//54 110//54 109//54
f  109//55 108//72 106//55
f  106//57 108//73 109//57
f  112//54 110//54 107//54
f  112//71 107//70 111//71
f  113//51 111//51 108//51
f  108//72 109//55 110//72
f  110//73 109//57 108//73
f  112//54 114//54 110//54
f  111//71 115//74 112//71
f  113//51 115//51 111//51
f  114//71 108//72 113//71
f  113//58 108//73 114//58
f  108//72 114//71 110//72
f  110//73 114//58 108//73
f  116//54 114//54 112//54
f  116//74 112//71 115//74
f  117//51 115//51 113//51
f  113//71 118//74 114//71
f  114//58 118//59 113//58
f  116//54 118//54 114//54
f  115//74 119//75 116//74
f  117//51 119//51 115//51
f  118//74 113//71 117//74
f  117//59 113//58 118//59
f  120//54 118//54 116//54
f  120//75 116//74 119//75
f  117//51 121//51 119//51
f  117//74 124//75 118//74
f  118//59 124//60 117//59
f  122//54 118//54 120//54
f  120//75 119//75 122//76
f  123//51 121//51 117//51
f  121//76 122//76 119//75
f  124//75 117//74 123//75
f  123//60 117//59 124//60
f  122//54 124//54 118//54
f  123//51 125//51 121//51
f  122//76 121//76 126//52
f  127//76 124//75 123//75
f  123//60 124//60 127//61
f  126//54 124//54 122//54
f  125//51 123//51 127//51
f  125//52 126//52 121//76
f  124//75 127//76 131//76
f  131//61 127//61 124//60
f  128//54 124//54 126//54
f  127//51 129//51 125//51
f  126//52 125//52 130//77
f  135//52 131//76 127//76
f  127//61 131//61 135//53
f  128//54 131//54 124//54
f  126//54 132//54 128//54
f  127//51 133//51 129//51
f  125//51 129//51 134//51
f  134//77 130//77 125//52
f  132//54 126//54 130//54
f  131//76 135//52 136//52
f  136//53 135//53 131//61
f  133//51 127//51 135//51
f  131//54 128//54 136//54
f  128//77 129//78 132//78
f  132//63 129//63 128//62
f  129//78 128//77 133//77
f  133//62 128//62 129//63
f  134//51 129//51 137//51
f  130//77 134//77 138//78
f  132//54 130//54 139//54
f  133//77 136//52 135//52
f  135//53 136//53 133//62
f  136//52 133//77 128//77
f  128//62 133//62 136//53
f  129//78 139//79 132//78
f  132//63 139//64 129//63
f  139//79 129//78 137//79
f  137//64 129//63 139//64
f  134//51 137//51 140//51
f  140//78 138//78 134//77
f  139//54 130//54 138//54
f  137//79 143//80 139//79
f  139//64 143//66 137//64
f  140//51 137//51 141//51
f  140//78 141//79 138//78
f  139//54 138//54 142//54
f  143//80 137//79 145//81
f  145//65 137//64 143//66
f  139//54 142//54 143//54
f  141//51 137//51 144//51
f  142//79 138//78 141//79
f  145//81 137//79 144//81
f  144//65 137//64 145//65
f  143//54 146//54 145//54
f  143//54 142//54 146//54
f  141//51 144//51 147//51
f  141//79 148//81 142//79
f  144//81 149//82 145//81
f  145//65 149//83 144//65
f  145//54 146//54 149//54
f  146//81 142//79 148//81
f  147//51 144//51 148//51
f  147//80 148//81 141//79
f  149//82 144//81 152//82
f  152//83 144//65 149//83
f  149//54 146//54 150//54
f  148//81 151//84 146//81
f  148//51 144//51 152//51
f  149//82 154//68 152//82
f  152//83 154//69 149//83
f  150//84 146//81 151//84
f  149//54 150//54 153//54
f  148//51 152//51 151//51
f  154//68 149//82 156//68
f  156//69 149//83 154//69
f  155//51 152//51 154//51
f  151//84 155//69 150//84
f  153//69 150//84 155//69
f  149//54 153//54 156//54
f  151//51 152//51 155//51
f  155//51 154//51 157//51
f  156//54 153//54 159//54
f  155//51 157//51 160//51
f  159//54 153//54 158//54
f  155//51 160//51 161//51
f  159//54 158//54 162//54

# Mesh 'mesh3_mesh3-geometry' with 11 faces
g mesh3_mesh3-geometry
usemtl material_1_0
l  105 102
l  97 105
l  101 105
l  102 104
l  163 102
l  97 100
l  99 97
l  104 101
l  99 101
l  100 98
l  98 99

# Mesh 'mesh4_mesh4-geometry' with 7 faces
g mesh4_mesh4-geometry
usemtl material_1_0
l  159 162
l  157 159
l  162 158
l  162 160
l  160 157
l  158 161
l  160 161

# Mesh 'mesh5_mesh5-geometry' with 1 faces
g mesh5_mesh5-geometry
usemtl material_1_0
l  164 165

# Mesh 'mesh6_mesh6-geometry' with 1 faces
g mesh6_mesh6-geometry
usemtl material_1_0
l  147 143

# Mesh 'mesh7_mesh7-geometry' with 1 faces
g mesh7_mesh7-geometry
usemtl material_1_0
l  109 106

