# File produced by Open Asset Import Library (http://www.assimp.sf.net)
# (assimp v3.2.202087883)

mtllib model_normalized.mtl

# 88 vertex positions
v 0.109429 -0.214764 0.248974
v 0.172281 0.255211 0.167083
v 0.172281 -0.214764 0.167083
v 0.109429 0.255211 0.248974
v 0.185766 -0.214764 0.064737
v 0.061741 -0.214764 0.268721
v 0.213818 0.255211 0.184293
v 0.185766 0.255211 0.064737
v -0.088293 -0.214764 0.274983
v 0.014053 -0.214764 0.288469
v 0.061741 0.255211 0.268721
v 0.019917 0.255211 0.333046
v 0.230343 0.255211 0.058873
v 0.166019 -0.214764 0.017048
v -0.170184 -0.214764 0.212132
v 0.014053 0.255211 0.288469
v 0.078356 0.255211 0.308847
v 0.213818 -0.280560 0.184293
v 0.206144 0.255211 0.000433
v 0.166019 0.255211 0.017048
v -0.170184 0.255211 0.212132
v 0.136796 0.255211 0.284648
v 0.078356 -0.280560 0.308847
v -0.105504 0.255211 0.316520
v 0.230343 -0.280560 0.058873
v 0.146271 -0.214764 -0.030640
v -0.189933 -0.214764 0.164444
v -0.088293 0.255211 0.274983
v -0.189933 0.255211 0.164444
v 0.136796 -0.280560 0.284648
v 0.019917 -0.280560 0.333046
v -0.205860 -0.280560 0.239499
v 0.206144 -0.280560 0.000433
v 0.181945 0.255211 -0.058007
v 0.146271 0.255211 -0.030640
v -0.205860 0.255211 0.239499
v -0.230056 0.255211 0.181059
v -0.105504 -0.280560 0.316520
v -0.230056 -0.280560 0.181059
v 0.064380 -0.214764 -0.093492
v -0.209678 -0.214764 0.116755
v -0.209678 0.255211 0.116755
v -0.254256 -0.280560 0.122619
v 0.181945 -0.280560 -0.058007
v 0.064380 0.255211 -0.093492
v -0.254256 0.255211 0.122619
v 0.081590 0.255211 -0.135029
v -0.037966 0.255211 -0.106976
v -0.196196 -0.214764 0.014409
v -0.196196 0.255211 0.014409
v -0.237730 -0.280560 -0.002801
v 0.081590 -0.280560 -0.135029
v -0.037966 -0.214764 -0.106976
v -0.237730 0.255211 -0.002801
v 0.059953 -0.225686 -0.137880
v -0.043830 0.255211 -0.151554
v -0.085654 0.255211 -0.087229
v -0.133343 -0.214764 -0.067482
v -0.133343 0.255211 -0.067482
v -0.043830 -0.280560 -0.151554
v 0.059953 0.206948 -0.137880
v -0.085654 -0.214764 -0.087229
v -0.160712 0.255211 -0.103155
v -0.160712 -0.280560 -0.103155
v -0.022193 -0.225686 -0.148703
v 0.059953 -0.142830 -0.137880
v -0.022193 0.206948 -0.148703
v -0.102268 -0.280560 -0.127355
v -0.022193 -0.142830 -0.148703
v 0.079593 -0.225686 -0.286939
v 0.059953 0.124092 -0.137880
v 0.079593 0.206948 -0.286939
v -0.102268 0.255211 -0.127355
v -0.022193 0.124092 -0.148703
v 0.005439 -0.170614 -0.358411
v -0.002552 -0.225686 -0.297764
v 0.087584 -0.170614 -0.347589
v 0.087584 0.145773 -0.347589
v -0.002552 0.206948 -0.297764
v -0.008941 -0.142830 -0.249277
v 0.073204 -0.142830 -0.238451
v 0.073204 0.124092 -0.238451
v 0.005439 0.145773 -0.358411
v -0.008941 0.124092 -0.249277
v -0.004688 -0.112535 -0.281551
v 0.077457 -0.112535 -0.270729
v 0.077457 0.091537 -0.270729
v -0.004688 0.091537 -0.281551

# 224 UV coordinates
vt 0.103413 0.020753 0
vt 0.0763 0.144191 0
vt 0.0763 0.020753 0
vt 0.103413 0.144191 0
vt -0.106684 0.144191 0
vt -0.133797 0.020753 0
vt -0.106684 0.020753 0
vt 0.261081 0.238839 0
vt 0.247525 0.275876 0
vt 0.247525 0.26232 0
vt 0.275876 0.020753 0
vt 0.26232 0.144191 0
vt 0.26232 0.020753 0
vt 0.252731 0.230489 0
vt -0.133797 0.144191 0
vt 0.261081 0.312913 0
vt 0.284562 0.225282 0
vt 0.247525 0.289433 0
vt 0.275876 0.144191 0
vt 0.236118 0.292489 0
vt 0.281506 0.213876 0
vt -0.284562 0.144191 0
vt -0.298119 0.020753 0
vt -0.284562 0.020753 0
vt 0.284562 0.32647 0
vt 0.289433 0.020753 0
vt 0.236118 0.275876 0
vt 0.103627 0.003472 0
vt 0.136853 0.144191 0
vt 0.103627 0.144191 0
vt 0.298119 0.213876 0
vt -0.298119 0.144191 0
vt 0.298119 0.225282 0
vt 0.401532 0.020753 0
vt 0.374418 0.144191 0
vt 0.374418 0.020753 0
vt 0.409673 0.144191 0
vt 0.38256 0.020753 0
vt 0.409673 0.020753 0
vt 0.289433 0.144191 0
vt 0.236118 0.259263 0
vt -0.292489 0.144191 0
vt -0.275876 0.003472 0
vt -0.275876 0.144191 0
vt 0.252731 0.321263 0
vt 0.136853 0.003472 0
vt -0.106469 0.144191 0
vt -0.073243 0.003472 0
vt -0.073243 0.144191 0
vt 0.281506 0.003472 0
vt 0.298119 0.144191 0
vt 0.281506 0.144191 0
vt -0.311675 0.020753 0
vt 0.298119 0.32647 0
vt 0.401532 0.144191 0
vt 0.38256 0.144191 0
vt 0.284562 0.020753 0
vt 0.284562 0.144191 0
vt -0.259263 0.003472 0
vt -0.259263 0.144191 0
vt -0.292489 0.003472 0
vt -0.404588 0.144191 0
vt -0.371362 0.003472 0
vt -0.371362 0.144191 0
vt -0.252731 0.230489 0
vt -0.281506 0.337876 0
vt -0.281506 0.213876 0
vt -0.106469 0.003472 0
vt 0.298119 0.003472 0
vt 0.314732 0.213876 0
vt -0.311675 0.144191 0
vt 0.311675 0.225282 0
vt 0.298119 0.020753 0
vt 0.281506 0.337876 0
vt 0.298119 0.337876 0
vt -0.252731 0.321263 0
vt -0.236118 0.275876 0
vt -0.236118 0.292489 0
vt -0.236118 0.259263 0
vt -0.404588 0.003472 0
vt -0.298119 0.337876 0
vt -0.298119 0.213876 0
vt 0.314732 0.144191 0
vt -0.38256 0.144191 0
vt -0.409673 0.020753 0
vt -0.38256 0.020753 0
vt 0.311675 0.32647 0
vt 0.311675 0.144191 0
vt -0.412729 0.003472 0
vt -0.379503 0.144191 0
vt -0.412729 0.144191 0
vt -0.379503 0.003472 0
vt -0.281506 0.144191 0
vt -0.298119 0.003472 0
vt -0.281506 0.003472 0
vt -0.314732 0.337876 0
vt 0.314732 0.003472 0
vt 0.335156 0.238839 0
vt -0.409673 0.144191 0
vt 0.311675 0.020753 0
vt 0.314732 0.337876 0
vt -0.314732 0.003472 0
vt -0.314732 0.213876 0
vt 0.379503 0.003472 0
vt 0.412729 0.144191 0
vt 0.379503 0.144191 0
vt 0.343506 0.230489 0
vt -0.401532 0.144191 0
vt -0.374418 0.020753 0
vt -0.374418 0.144191 0
vt 0.335156 0.312913 0
vt 0.106684 0.020753 0
vt 0.133797 0.144191 0
vt 0.106684 0.144191 0
vt -0.314732 0.144191 0
vt -0.343506 0.321263 0
vt 0.412729 0.003472 0
vt 0.348712 0.26232 0
vt -0.401532 0.020753 0
vt 0.133797 0.020753 0
vt 0.343506 0.321263 0
vt -0.103627 0.144191 0
vt -0.136853 0.003472 0
vt -0.103627 0.003472 0
vt -0.343506 0.230489 0
vt 0.371362 0.003472 0
vt 0.377094 0.017885 0
vt 0.371362 0.144191 0
vt 0.360119 0.259263 0
vt -0.26232 0.020753 0
vt -0.26232 0.144191 0
vt 0.348712 0.289433 0
vt -0.0763 0.020753 0
vt -0.103413 0.144191 0
vt -0.103413 0.020753 0
vt -0.136853 0.144191 0
vt -0.360119 0.259263 0
vt 0.404588 0.003472 0
vt 0.377094 0.131514 0
vt 0.404588 0.144191 0
vt 0.348712 0.275876 0
vt -0.275876 0.020753 0
vt -0.0763 0.144191 0
vt 0.360119 0.292489 0
vt 0.073243 0.144191 0
vt 0.106469 0.003472 0
vt 0.106469 0.144191 0
vt -0.360119 0.292489 0
vt 0.398856 0.017885 0
vt 0.377094 0.039647 0
vt 0.398856 0.131514 0
vt -0.289433 0.144191 0
vt -0.289433 0.020753 0
vt 0.073243 0.003472 0
vt -0.360119 0.275876 0
vt 0.398856 0.039647 0
vt -0.357253 0.254299 0
vt -0.38057 0.215709 0
vt -0.346372 0.235453 0
vt 0.221729 0.017885 0
vt 0.182241 0.039647 0
vt 0.182241 0.017885 0
vt 0.377094 0.109753 0
vt 0.38057 0.215709 0
vt 0.357253 0.254299 0
vt 0.346372 0.235453 0
vt 0.360119 0.275876 0
vt 0.292489 0.003472 0
vt 0.292489 0.144191 0
vt 0.275876 0.003472 0
vt 0.259263 0.144191 0
vt 0.259263 0.003472 0
vt 0.398856 0.109753 0
vt -0.237796 0.032349 0
vt -0.182241 0.017885 0
vt -0.182241 0.039647 0
vt -0.391451 0.234555 0
vt 0.237796 0.032349 0
vt 0.182241 0.109753 0
vt 0.237796 0.115447 0
vt 0.182241 0.131514 0
vt 0.391451 0.234555 0
vt 0.221729 0.131514 0
vt -0.221729 0.017885 0
vt -0.208884 0.039647 0
vt 0.398856 0.176756 0
vt 0.377094 0.198375 0
vt 0.377094 0.176756 0
vt 0.208884 0.039647 0
vt 0.369446 0.222131 0
vt 0.208884 0.109753 0
vt 0.377094 -0.086514 0
vt 0.398856 -0.063791 0
vt 0.377094 -0.063791 0
vt -0.237796 0.115447 0
vt -0.182241 0.131514 0
vt -0.221729 0.131514 0
vt -0.208884 0.109753 0
vt -0.182241 0.109753 0
vt -0.369446 0.222131 0
vt 0.398856 0.198375 0
vt 0.380327 0.240977 0
vt -0.217434 0.047604 0
vt 0.217434 0.047604 0
vt 0.217434 0.101202 0
vt 0.398856 -0.086514 0
vt -0.380327 0.240977 0
vt 0.398856 0.032349 0
vt 0.377094 0.115447 0
vt 0.377094 0.032349 0
vt -0.377094 0.191604 0
vt -0.398856 0.179924 0
vt -0.377094 0.179924 0
vt -0.398856 0.191604 0
vt -0.398856 -0.070096 0
vt -0.377094 -0.082189 0
vt -0.377094 -0.070096 0
vt 0.398856 0.115447 0
vt -0.217434 0.101202 0
vt -0.377094 0.047604 0
vt -0.398856 0.101202 0
vt -0.398856 0.047604 0
vt -0.377094 0.101202 0
vt -0.398856 -0.082189 0

# 34 vertex normals
vn -0.0154604 0 -0.0201528
vn -0.0234655 0 -0.00972266
vn -0.0251831 0 0.00331269
vn 0 0.0254 0
vn -0.00971766 0 -0.0234676
vn -0.0234676 0 0.00971766
vn -0.00331269 0 -0.0251831
vn 0.0234655 0 0.00972266
vn 0.0251831 0 -0.00331269
vn 0.00972266 0 -0.0234655
vn 0.0201528 0 -0.0154604
vn 0.00331269 0 0.0251831
vn 0.00971766 0 0.0234676
vn 0.0154604 0 0.0201528
vn 0.0234676 0 -0.00971766
vn -0.0201528 0 0.0154604
vn -0.00972266 0 0.0234655
vn -0 -0.0254 0
vn 0.00331805 0 -0.0251823
vn 0.00118896 -0.0237133 -0.00902351
vn 0.0251823 0 0.00331805
vn 0.00126976 0.0234666 -0.00963688
vn -0.0251823 0 -0.00331805
vn 0.00303113 -0.0103321 -0.0230048
vn -0.00121445 0.0236374 0.00921722
vn 0.00306548 0.00972015 -0.0232655
vn -0.00126976 -0.0234666 0.00963688
vn -0.00304217 0.0101403 0.0230885
vn -0.00306548 -0.00972015 0.0232655
vn -0.00331805 0 0.0251823
vn -0.00118896 0.0237133 0.00902351
vn -0.00303113 0.0103321 0.0230048
vn 0.00121445 -0.0236374 -0.00921722
vn 0.00304217 -0.0101403 -0.0230885

# Mesh 'mesh1_mesh1-geometry' with 176 faces
g mesh1_mesh1-geometry
usemtl material_0_1_8
f  1/1/1 2/2/2 3/3/2
f  2/2/2 1/1/1 4/4/1
f  2/5/2 5/6/3 3/7/2
f  3/8/4 6/9/4 1/10/4
f  6/11/5 4/12/1 1/13/1
f  4/10/4 7/14/4 2/8/4
f  5/6/3 2/5/2 8/15/3
f  9/16/4 3/8/4 5/17/4
f  6/9/4 3/8/4 10/18/4
f  4/12/1 6/11/5 11/19/5
f  12/20/4 7/14/4 4/10/4
f  2/8/4 7/14/4 13/21/4
f  2/8/4 13/21/4 8/17/4
f  8/22/3 14/23/6 5/24/3
f  10/18/4 3/8/4 9/16/4
f  9/16/4 5/17/4 15/25/4
f  10/26/7 11/19/5 6/11/5
f  16/18/4 4/10/4 11/9/4
f  17/27/4 7/14/4 12/20/4
f  16/18/4 12/20/4 4/10/4
f  18/28/8 13/29/9 7/30/8
f  8/17/4 13/21/4 19/31/4
f  14/23/6 8/22/3 20/32/6
f  15/25/4 5/17/4 14/33/4
f  9/34/10 16/35/7 10/36/7
f  21/37/11 9/38/10 15/39/11
f  11/19/5 10/26/7 16/40/7
f  7/14/4 17/27/4 22/41/4
f  12/42/12 23/43/13 17/44/13
f  12/20/4 16/18/4 24/45/4
f  13/29/9 18/28/8 25/46/9
f  22/47/14 18/48/8 7/49/8
f  25/50/9 19/51/15 13/52/9
f  8/17/4 19/31/4 20/33/4
f  20/32/6 26/53/16 14/23/6
f  15/25/4 14/33/4 27/54/4
f  16/35/7 9/34/10 28/55/10
f  9/38/10 21/37/11 28/56/10
f  15/57/11 29/51/15 21/58/11
f  17/44/13 30/59/14 22/60/14
f  23/43/13 12/42/12 31/61/12
f  30/59/14 17/44/13 23/43/13
f  24/45/4 16/18/4 28/16/4
f  24/62/17 31/63/12 12/64/12
f  18/65/18 32/66/18 25/67/18
f  18/48/8 22/47/14 30/68/14
f  19/51/15 25/50/9 33/69/15
f  20/33/4 19/31/4 34/70/4
f  26/53/16 20/32/6 35/71/16
f  27/54/4 14/33/4 26/72/4
f  29/51/15 15/57/11 27/73/15
f  36/74/4 28/16/4 21/25/4
f  37/75/4 21/25/4 29/54/4
f  38/76/18 23/77/18 31/78/18
f  23/77/18 38/76/18 30/79/18
f  24/45/4 28/16/4 36/74/4
f  31/63/12 24/62/17 38/80/17
f  18/65/18 38/76/18 32/66/18
f  25/67/18 32/66/18 39/81/18
f  30/79/18 38/76/18 18/65/18
f  25/67/18 39/81/18 33/82/18
f  33/69/15 34/83/11 19/51/15
f  20/33/4 34/70/4 35/72/4
f  35/84/16 40/85/17 26/86/16
f  27/54/4 26/72/4 41/87/4
f  27/73/15 42/88/9 29/51/15
f  36/74/4 21/25/4 37/75/4
f  37/75/4 29/54/4 42/87/4
f  32/89/16 24/90/17 36/91/16
f  24/90/17 32/89/16 38/92/17
f  36/93/16 39/94/6 32/95/16
f  33/82/18 39/81/18 43/96/18
f  34/83/11 33/69/15 44/97/11
f  35/72/4 34/70/4 45/98/4
f  40/85/17 35/84/16 45/99/17
f  41/87/4 26/72/4 40/98/4
f  42/88/9 27/73/15 41/100/9
f  39/94/6 36/93/16 37/32/6
f  37/75/4 42/87/4 46/101/4
f  37/32/6 43/102/3 39/94/6
f  33/82/18 43/96/18 44/103/18
f  44/104/11 47/105/10 34/106/11
f  45/98/4 34/70/4 47/107/4
f  48/108/12 40/109/17 45/110/17
f  41/87/4 40/98/4 49/111/4
f  41/112/9 50/113/8 42/114/9
f  46/101/4 42/87/4 50/111/4
f  43/102/3 37/32/6 46/115/3
f  44/103/18 43/96/18 51/116/18
f  47/105/10 44/104/11 52/117/10
f  45/98/4 47/107/4 48/118/4
f  40/109/17 48/108/12 53/119/12
f  49/111/4 40/98/4 53/118/4
f  50/113/8 41/112/9 49/120/8
f  46/101/4 50/111/4 54/121/4
f  46/122/3 51/123/2 43/124/3
f  44/103/18 51/116/18 52/125/18
f  52/126/10 55/127/19 47/128/10
f  48/118/4 47/107/4 56/129/4
f  57/44/13 53/130/12 48/131/12
f  49/111/4 53/118/4 58/132/4
f  58/133/14 50/134/8 49/135/8
f  54/121/4 50/111/4 59/132/4
f  51/123/2 46/122/3 54/136/2
f  52/125/18 51/116/18 60/137/18
f  55/127/19 52/126/10 60/138/7
f  61/139/19 47/128/10 55/127/19
f  47/128/10 61/139/19 56/140/7
f  48/118/4 56/129/4 57/141/4
f  53/130/12 57/44/13 62/142/13
f  58/132/4 53/118/4 62/141/4
f  50/134/8 58/133/14 59/143/14
f  54/121/4 59/132/4 63/144/4
f  63/145/1 51/146/2 54/147/2
f  60/137/18 51/116/18 64/148/18
f  55/127/19 60/138/7 65/149/19
f  61/139/19 55/127/19 66/150/19
f  56/140/7 61/139/19 67/151/19
f  57/141/4 56/129/4 59/132/4
f  59/152/14 62/142/13 57/44/13
f  62/142/13 59/152/14 58/153/14
f  63/144/4 59/132/4 56/129/4
f  51/146/2 63/145/1 64/154/1
f  60/137/18 64/148/18 68/155/18
f  65/149/19 60/138/7 69/156/19
f  65/157/18 70/158/20 55/159/18
f  70/160/21 66/161/21 55/162/21
f  61/139/19 66/150/19 71/163/19
f  72/164/22 67/165/4 61/166/4
f  56/140/7 67/151/19 60/138/7
f  63/144/4 56/129/4 73/167/4
f  73/19/5 64/168/1 63/169/1
f  64/168/1 73/19/5 68/170/5
f  68/170/5 56/171/7 60/172/7
f  69/156/19 60/138/7 74/173/19
f  75/174/23 65/175/23 69/176/23
f  70/158/20 65/157/18 76/177/20
f  66/161/21 70/160/21 77/178/21
f  69/156/19 71/163/19 66/150/19
f  71/179/21 78/180/21 61/181/21
f  67/165/4 72/164/22 79/182/22
f  61/181/21 78/180/21 72/183/21
f  74/173/19 60/138/7 67/151/19
f  56/171/7 68/170/5 73/19/5
f  71/163/19 69/156/19 74/173/19
f  65/175/23 75/174/23 76/184/23
f  75/174/23 69/176/23 80/185/23
f  76/186/20 77/187/24 70/188/20
f  66/161/21 77/178/21 81/189/21
f  81/190/25 69/165/4 66/166/4
f  82/191/21 78/180/21 71/179/21
f  78/192/26 79/193/22 72/194/22
f  83/195/23 67/196/23 79/197/23
f  67/196/23 84/198/23 74/199/23
f  74/157/18 82/200/27 71/159/18
f  77/187/24 76/186/20 75/201/24
f  69/165/4 81/190/25 80/202/25
f  75/174/23 80/185/23 85/203/23
f  81/189/21 77/178/21 86/204/21
f  87/205/21 78/180/21 82/191/21
f  79/193/22 78/192/26 83/206/26
f  84/198/23 67/196/23 83/195/23
f  82/200/27 74/157/18 84/207/27
f  75/208/24 78/209/26 77/210/24
f  86/211/28 80/212/25 81/213/25
f  80/212/25 86/211/28 85/214/28
f  75/174/23 85/203/23 83/195/23
f  86/204/21 77/178/21 78/180/21
f  86/204/21 78/180/21 87/205/21
f  84/215/27 87/216/29 82/217/27
f  78/209/26 75/208/24 83/218/26
f  83/195/23 88/219/23 84/198/23
f  86/220/28 88/221/29 85/222/28
f  83/195/23 85/203/23 88/219/23
f  88/221/29 86/220/28 87/223/29
f  87/216/29 84/215/27 88/224/29

# Mesh 'mesh1_mesh1-geometry' with 176 faces
g mesh1_mesh1-geometry
usemtl material_1_24
f  3//8 2//8 1//14
f  4//14 1//14 2//8
f  3//8 5//9 2//8
f  1//18 6//18 3//18
f  1//14 4//14 6//13
f  2//18 7//18 4//18
f  8//9 2//8 5//9
f  5//18 3//18 9//18
f  10//18 3//18 6//18
f  11//13 6//13 4//14
f  4//18 7//18 12//18
f  13//18 7//18 2//18
f  8//18 13//18 2//18
f  5//9 14//15 8//9
f  9//18 3//18 10//18
f  15//18 5//18 9//18
f  6//13 11//13 10//12
f  11//18 4//18 16//18
f  12//18 7//18 17//18
f  4//18 12//18 16//18
f  7//2 13//3 18//2
f  19//18 13//18 8//18
f  20//15 8//9 14//15
f  14//18 5//18 15//18
f  10//12 16//12 9//17
f  15//16 9//17 21//16
f  16//12 10//12 11//13
f  22//18 17//18 7//18
f  17//5 23//5 12//7
f  24//18 16//18 12//18
f  25//3 18//2 13//3
f  7//2 18//2 22//1
f  13//3 19//6 25//3
f  20//18 19//18 8//18
f  14//15 26//11 20//15
f  27//18 14//18 15//18
f  28//17 9//17 16//12
f  28//17 21//16 9//17
f  21//16 29//6 15//16
f  22//1 30//1 17//5
f  31//7 12//7 23//5
f  23//5 17//5 30//1
f  28//18 16//18 24//18
f  12//7 31//7 24//10
f  25//4 32//4 18//4
f  30//1 22//1 18//2
f  33//6 25//3 19//6
f  34//18 19//18 20//18
f  35//11 20//15 26//11
f  26//18 14//18 27//18
f  27//6 15//16 29//6
f  21//18 28//18 36//18
f  29//18 21//18 37//18
f  31//4 23//4 38//4
f  30//4 38//4 23//4
f  36//18 28//18 24//18
f  38//10 24//10 31//7
f  32//4 38//4 18//4
f  39//4 32//4 25//4
f  18//4 38//4 30//4
f  33//4 39//4 25//4
f  19//6 34//16 33//6
f  35//18 34//18 20//18
f  26//11 40//10 35//11
f  41//18 26//18 27//18
f  29//6 42//3 27//6
f  37//18 21//18 36//18
f  42//18 29//18 37//18
f  36//11 24//10 32//11
f  38//10 32//11 24//10
f  32//11 39//15 36//11
f  43//4 39//4 33//4
f  44//16 33//6 34//16
f  45//18 34//18 35//18
f  45//10 35//11 40//10
f  40//18 26//18 41//18
f  41//3 27//6 42//3
f  37//15 36//11 39//15
f  46//18 42//18 37//18
f  39//15 43//9 37//15
f  44//4 43//4 33//4
f  34//16 47//17 44//16
f  47//18 34//18 45//18
f  45//10 40//10 48//7
f  49//18 40//18 41//18
f  42//3 50//2 41//3
f  50//18 42//18 46//18
f  46//9 37//15 43//9
f  51//4 43//4 44//4
f  52//17 44//16 47//17
f  48//18 47//18 45//18
f  53//7 48//7 40//10
f  53//18 40//18 49//18
f  49//2 41//3 50//2
f  54//18 50//18 46//18
f  43//9 51//8 46//9
f  52//4 51//4 44//4
f  47//17 55//30 52//17
f  56//18 47//18 48//18
f  48//7 53//7 57//5
f  58//18 53//18 49//18
f  49//2 50//2 58//1
f  59//18 50//18 54//18
f  54//8 46//9 51//8
f  60//4 51//4 52//4
f  60//12 52//17 55//30
f  55//30 47//17 61//30
f  56//12 61//30 47//17
f  57//18 56//18 48//18
f  62//5 57//5 53//7
f  62//18 53//18 58//18
f  59//1 58//1 50//2
f  63//18 59//18 54//18
f  54//8 51//8 63//14
f  64//4 51//4 60//4
f  65//30 60//12 55//30
f  66//30 55//30 61//30
f  67//30 61//30 56//12
f  59//18 56//18 57//18
f  57//5 62//5 59//1
f  58//1 59//1 62//5
f  56//18 59//18 63//18
f  64//14 63//14 51//8
f  68//4 64//4 60//4
f  69//30 60//12 65//30
f  55//4 70//31 65//4
f  55//23 66//23 70//23
f  71//30 66//30 61//30
f  61//18 67//18 72//27
f  60//12 67//30 56//12
f  73//18 56//18 63//18
f  63//14 64//14 73//13
f  68//13 73//13 64//14
f  60//12 56//12 68//13
f  74//30 60//12 69//30
f  69//21 65//21 75//21
f  76//31 65//4 70//31
f  77//23 70//23 66//23
f  66//30 71//30 69//30
f  61//23 78//23 71//23
f  79//27 72//27 67//18
f  72//23 78//23 61//23
f  67//30 60//12 74//30
f  73//13 68//13 56//12
f  74//30 69//30 71//30
f  76//21 75//21 65//21
f  80//21 69//21 75//21
f  70//31 77//32 76//31
f  81//23 77//23 66//23
f  66//18 69//18 81//33
f  71//23 78//23 82//23
f  72//27 79//27 78//29
f  79//21 67//21 83//21
f  74//21 84//21 67//21
f  71//4 82//22 74//4
f  75//32 76//31 77//32
f  80//33 81//33 69//18
f  85//21 80//21 75//21
f  86//23 77//23 81//23
f  82//23 78//23 87//23
f  83//29 78//29 79//27
f  83//21 67//21 84//21
f  84//22 74//4 82//22
f  77//32 78//29 75//32
f  81//33 80//33 86//34
f  85//34 86//34 80//33
f  83//21 85//21 75//21
f  78//23 77//23 86//23
f  87//23 78//23 86//23
f  82//22 87//26 84//22
f  83//29 75//32 78//29
f  84//21 88//21 83//21
f  85//34 88//26 86//34
f  88//21 85//21 83//21
f  87//26 86//34 88//26
f  88//26 84//22 87//26

