# File produced by Open Asset Import Library (http://www.assimp.sf.net)
# (assimp v3.2.202087883)

mtllib model_normalized.mtl

# 164 vertex positions
v -0.224620 0.260086 0.216619
v -0.234683 0.260086 0.093481
v -0.237772 0.260086 0.155712
v -0.215616 0.260086 0.034340
v -0.237772 -0.269010 0.155712
v -0.224620 -0.269010 0.216619
v -0.196241 0.260086 0.271789
v -0.234683 -0.269010 0.093481
v -0.196241 -0.269010 0.271789
v -0.181897 0.260086 -0.017740
v -0.215616 -0.269010 0.034340
v -0.218573 -0.269010 0.183959
v -0.154444 -0.269010 0.318131
v -0.154444 0.260086 0.318131
v -0.224223 -0.269010 0.126141
v -0.198183 -0.269010 0.237804
v -0.164507 -0.269010 0.285029
v -0.135775 0.260086 -0.059669
v -0.181897 -0.269010 -0.017740
v -0.214778 -0.269010 0.069207
v -0.218573 0.248170 0.183959
v -0.198183 0.248170 0.237804
v -0.102188 0.260086 0.351674
v -0.119798 -0.269010 0.321662
v -0.135775 -0.269010 -0.059669
v -0.224223 0.248170 0.126141
v -0.164507 0.248170 0.285029
v -0.102188 -0.269010 0.351674
v -0.080429 0.260086 -0.087916
v -0.080429 -0.269010 -0.087916
v -0.154135 -0.269010 -0.028333
v -0.190856 -0.269010 0.016244
v -0.214778 0.248170 0.069207
v -0.190856 0.248170 0.016244
v -0.042958 0.260086 0.370652
v -0.119798 0.248170 0.321662
v -0.067100 -0.269010 0.345495
v -0.107131 -0.269010 -0.061876
v -0.154135 0.248170 -0.028333
v -0.042958 -0.269010 0.370652
v -0.019610 0.260086 -0.101156
v -0.019610 -0.269010 -0.101156
v -0.052933 -0.269010 -0.082178
v -0.107131 0.248170 -0.061876
v 0.019185 0.260086 0.373742
v -0.067100 0.248170 0.345495
v -0.010033 -0.269010 0.355205
v -0.019610 0.237255 -0.101156
v -0.019610 -0.242851 -0.101156
v -0.052933 0.248170 -0.082178
v 0.019185 -0.269010 0.373742
v 0.042532 0.260086 -0.098067
v 0.042532 0.237661 -0.098067
v 0.042532 -0.269010 -0.098067
v 0.004620 -0.269010 -0.087916
v 0.004620 0.238981 -0.087916
v 0.080003 0.260086 0.360942
v -0.010033 0.248170 0.355205
v 0.047564 -0.269010 0.349467
v 0.044210 0.230807 -0.150147
v 0.042532 -0.243253 -0.098067
v 0.004620 0.248170 -0.087916
v 0.080003 -0.269010 0.360942
v 0.101762 0.260086 -0.079089
v -0.041590 0.230807 -0.150147
v 0.044210 0.202640 -0.109101
v 0.044210 0.237732 -0.097626
v 0.044210 -0.236398 -0.150147
v 0.101762 -0.269010 -0.079089
v 0.061731 -0.269010 -0.078647
v 0.061731 0.248170 -0.078647
v 0.135349 0.260086 0.332254
v 0.047564 0.248170 0.349467
v 0.101718 -0.269010 0.329165
v -0.041590 0.237877 -0.096302
v -0.041590 0.206643 -0.208406
v 0.044210 0.201836 -0.097626
v 0.044210 0.192254 -0.162505
v -0.041590 -0.243473 -0.096302
v 0.044210 -0.243328 -0.097626
v 0.044210 -0.211245 -0.097626
v 0.135349 -0.269010 0.332254
v 0.154019 0.260086 -0.045104
v -0.041590 0.191906 -0.096302
v 0.044210 0.206643 -0.208406
v -0.041590 0.175805 -0.167801
v -0.041590 0.191707 -0.102039
v -0.041590 0.191186 -0.117487
v -0.041590 -0.236398 -0.150147
v 0.044210 -0.208469 -0.137789
v 0.044210 -0.244638 -0.087474
v 0.154019 -0.269010 -0.045104
v 0.114429 -0.269010 -0.054814
v 0.114429 0.248170 -0.054814
v 0.101718 0.248170 0.329165
v 0.181471 0.260086 0.290767
v 0.148766 -0.269010 0.295180
v -0.041590 0.168209 -0.258720
v -0.041590 0.147881 -0.212819
v 0.044210 0.168439 -0.211054
v -0.041590 -0.209334 -0.103805
v 0.044210 -0.212239 -0.208406
v 0.044210 -0.190837 -0.188986
v 0.044210 -0.212216 -0.083502
v 0.181471 -0.269010 0.290767
v 0.195815 0.260086 0.000797
v 0.044210 0.168209 -0.258720
v -0.041590 -0.209078 -0.096302
v -0.041590 -0.197422 -0.155443
v -0.041590 -0.212239 -0.208406
v 0.159138 -0.269010 -0.018182
v 0.159138 0.248170 -0.018182
v 0.148766 0.248170 0.295180
v 0.215190 -0.269010 0.238246
v 0.185487 -0.269010 0.250604
v 0.215190 0.260086 0.238246
v 0.195815 -0.269010 0.000797
v 0.044210 0.118125 -0.297118
v -0.041590 0.109328 -0.248569
v 0.044210 0.132822 -0.252100
v 0.044210 -0.173805 -0.258720
v 0.044210 -0.160529 -0.234004
v 0.185487 0.248170 0.250604
v 0.224194 0.260086 0.055966
v -0.041590 0.118125 -0.297118
v 0.044210 0.087821 -0.282553
v -0.041590 0.062765 -0.273726
v -0.041590 -0.172614 -0.201785
v -0.041590 -0.173805 -0.258720
v 0.192814 -0.269010 0.029043
v 0.234257 -0.269010 0.179104
v 0.209409 -0.269010 0.198082
v 0.209409 0.248170 0.198082
v 0.234257 0.260086 0.179104
v 0.224194 -0.269010 0.055966
v 0.044210 0.059795 -0.320951
v 0.044210 0.036514 -0.299766
v -0.041590 -0.136599 -0.240183
v -0.041590 -0.123720 -0.297118
v 0.044210 -0.119607 -0.269313
v 0.213204 -0.269010 0.083330
v 0.192814 0.248170 0.029043
v 0.218854 -0.269010 0.140706
v 0.237346 0.260086 0.116873
v -0.041590 0.059795 -0.320951
v -0.041590 0.011365 -0.285643
v -0.041590 -0.091832 -0.268430
v 0.044210 -0.123720 -0.297118
v 0.237346 -0.269010 0.116873
v 0.218854 0.248170 0.140706
v 0.213204 0.248170 0.083330
v 0.044210 -0.002798 -0.329337
v 0.044210 -0.017610 -0.303738
v -0.041590 -0.065391 -0.320951
v -0.041590 -0.041364 -0.283877
v 0.044210 -0.070859 -0.293146
v -0.041590 -0.002798 -0.329337
v 0.044210 -0.065391 -0.320951
v -0.041590 -0.244638 -0.087474
v 0.044210 0.239047 -0.087474
v 0.044210 0.238248 -0.081295
v -0.041590 0.239047 -0.087474
v -0.041590 0.238513 -0.083502
v 0.007577 0.239047 -0.087474

# 0 UV coordinates

# 132 vertex normals
vn 0 1 0
vn -0 -1 0
vn 0.996678 0 -0.081439
vn 0.983795 0 0.179295
vn 0.941639 0 -0.336623
vn 0.903868 0 0.427811
vn 0.822429 0 -0.568867
vn 0.647172 0 -0.762344
vn 0.762344 0 0.647172
vn -0.973955 -0 0.226739
vn -0.999453 0 -0.033065
vn -0.882084 -0 0.471092
vn 0.427811 0 -0.903868
vn 0.568867 0 0.822429
vn -0.95684 0 -0.290616
vn -0.730101 -0 0.68334
vn -0.528362 -0 0.849019
vn 0.336623 0 0.941639
vn 0.179295 0 -0.983795
vn -0.849019 0 -0.528362
vn -0.290616 -0 0.95684
vn 0.081439 0 0.996678
vn -0.68334 0 -0.730101
vn -0.471092 0 -0.882084
vn -0.081439 0 -0.996678
vn 0.037664 0 0.99929
vn -0.226739 0 -0.973955
vn -0.033065 -0 0.999453
vn -0.135991 -0 0.99071
vn -0.179295 0 0.983795
vn 0.033065 0 -0.999453
vn -0.336623 0 -0.941639
vn -0 -0.991445 0.130526
vn -0 -0.965926 0.258819
vn 0.226739 0 0.973955
vn -0.427811 0 0.903868
vn -1 0 -0
vn 0 0.991445 0.130526
vn 0 0.965926 0.258819
vn 0.290616 0 -0.95684
vn -0.568867 0 -0.822429
vn -0 -0.866025 0.5
vn 0.471092 0 0.882084
vn 1 0 0
vn -0.120687 0.990317 0.068606
vn -0.111617 0.97537 -0.190248
vn -0.647172 -0 0.762344
vn 0.528362 0 -0.849019
vn -0.762344 0 -0.647172
vn -0 -0.707107 0.707107
vn -0.129014 0.991068 -0.033768
vn -0.162178 0.943889 -0.287701
vn 0 0.866025 0.5
vn -0.017105 -0.997463 -0.069101
vn 0.68334 0 0.730101
vn -0.822429 -0 0.568867
vn -0.189748 0.833082 -0.519586
vn -0.142134 0.889388 -0.434496
vn -0.117414 -0.939188 -0.322708
vn 0.730101 0 -0.68334
vn -0.903868 0 -0.427811
vn -0 -0.5 0.866025
vn -0.165938 0.743828 -0.647445
vn -0.013789 -0.974086 -0.225755
vn 0 0.707107 0.707107
vn 0.849019 0 0.528362
vn -0.941639 -0 0.336623
vn -0.210054 0.667389 -0.714472
vn -0.115899 -0.876602 -0.467051
vn -0.091695 -0.825905 -0.556303
vn 0.882084 0 -0.471092
vn -0.983795 0 -0.179295
vn 0.95684 0 0.290616
vn -0 -0.258819 0.965926
vn -0.221969 0.45849 -0.860533
vn -0.181604 0.549367 -0.815608
vn 0 0.5 0.866025
vn -0.150588 -0.722442 -0.674834
vn -0.996678 -0 0.081439
vn -0.188259 0.319146 -0.928819
vn -0.125221 -0.65138 -0.748348
vn 0.973955 0 -0.226739
vn 0.999453 0 0.033065
vn 0 0 1
vn -0.224876 0.219994 -0.949228
vn -0.180427 -0.520515 -0.834572
vn 0 0.258819 0.965926
vn -0.185549 0.067911 -0.980286
vn -0.15311 -0.433777 -0.887916
vn -0.20355 -0.285457 -0.936526
vn -0.218632 -0.033229 -0.975241
vn -0.173616 -0.188537 -0.966598
vn -0.037664 0 -0.99929
vn 0.135991 0 -0.99071
vn 0 0.965926 -0.258819
vn 0 0.991445 -0.130526
vn 0 -0.991445 -0.130526
vn 0 -0.965926 -0.258819
vn 0 0.866025 -0.5
vn 0 0.707107 -0.707107
vn 0 -0.866025 -0.5
vn 0 0.5 -0.866025
vn 0 -0.707107 -0.707107
vn 0 0.258819 -0.965926
vn 0 -0.5 -0.866025
vn 0 0 -1
vn 0 -0.258819 -0.965926
vn 0.120687 -0.990317 -0.068606
vn 0.111617 -0.97537 0.190248
vn 0.129014 -0.991068 0.033768
vn 0.162178 -0.943889 0.287701
vn 0.017105 0.997463 0.069101
vn 0.189748 -0.833082 0.519586
vn 0.142134 -0.889388 0.434496
vn 0.117414 0.939188 0.322708
vn 0.165938 -0.743828 0.647445
vn 0.013789 0.974086 0.225755
vn 0.210054 -0.667389 0.714472
vn 0.115899 0.876602 0.467051
vn 0.091695 0.825905 0.556303
vn 0.221969 -0.45849 0.860533
vn 0.181604 -0.549367 0.815608
vn 0.150588 0.722442 0.674834
vn 0.188259 -0.319146 0.928819
vn 0.125221 0.65138 0.748348
vn 0.224876 -0.219994 0.949228
vn 0.180427 0.520515 0.834572
vn 0.185549 -0.067911 0.980286
vn 0.15311 0.433777 0.887916
vn 0.20355 0.285457 0.936526
vn 0.218632 0.033229 0.975241
vn 0.173616 0.188537 0.966598

# Mesh 'mesh1_mesh1-geometry' with 328 faces
g mesh1_mesh1-geometry
usemtl material_0_24
f  1//1 2//1 3//1
f  2//1 1//1 4//1
f  3//2 2//2 1//2
f  4//2 1//2 2//2
f  3//3 5//3 2//4
f  1//5 6//5 3//3
f  4//1 1//1 7//1
f  7//2 1//2 4//2
f  2//4 8//4 4//6
f  8//4 2//4 5//3
f  5//3 3//3 6//5
f  6//5 1//5 9//7
f  7//7 9//7 1//5
f  4//1 7//1 10//1
f  10//2 7//2 4//2
f  11//6 4//6 8//4
f  5//1 6//1 8//1
f  9//1 12//1 6//1
f  9//7 7//7 13//8
f  10//1 7//1 14//1
f  14//2 7//2 10//2
f  4//6 11//6 10//9
f  11//1 8//1 15//1
f  15//1 8//1 6//1
f  15//1 6//1 12//1
f  16//1 12//1 9//1
f  14//8 13//8 7//7
f  13//1 17//1 9//1
f  10//1 14//1 18//1
f  18//2 14//2 10//2
f  19//9 10//9 11//6
f  20//1 11//1 15//1
f  12//10 21//10 15//11
f  16//12 22//12 12//10
f  17//1 16//1 9//1
f  14//8 23//13 13//8
f  24//1 17//1 13//1
f  18//1 14//1 23//1
f  23//2 14//2 18//2
f  18//14 10//9 25//14
f  19//9 25//14 10//9
f  19//1 11//1 20//1
f  15//11 26//11 20//15
f  26//11 15//11 21//10
f  21//10 12//10 22//12
f  22//12 16//12 27//16
f  17//16 27//16 16//12
f  28//13 13//8 23//13
f  17//16 24//17 27//16
f  28//1 24//1 13//1
f  18//1 23//1 29//1
f  29//2 23//2 18//2
f  25//14 30//18 18//14
f  25//1 19//1 31//1
f  32//1 19//1 20//1
f  33//15 20//15 26//11
f  26//1 21//1 33//1
f  22//1 33//1 21//1
f  27//1 34//1 22//1
f  23//13 35//19 28//13
f  36//17 27//16 24//17
f  37//1 24//1 28//1
f  29//1 23//1 35//1
f  35//2 23//2 29//2
f  29//18 18//14 30//18
f  30//1 25//1 38//1
f  31//1 19//1 32//1
f  38//1 25//1 31//1
f  20//15 33//15 32//20
f  34//1 33//1 22//1
f  39//1 34//1 27//1
f  40//19 28//13 35//19
f  36//1 39//1 27//1
f  24//17 37//21 36//17
f  40//1 37//1 28//1
f  29//1 35//1 41//1
f  41//2 35//2 29//2
f  30//18 42//22 29//18
f  43//1 30//1 38//1
f  32//20 34//20 31//23
f  38//24 31//23 44//24
f  34//20 32//20 33//15
f  39//23 31//23 34//20
f  35//19 45//25 40//19
f  44//1 39//1 36//1
f  46//21 36//17 37//21
f  47//1 37//1 40//1
f  41//1 35//1 45//1
f  45//2 35//2 41//2
f  41//22 29//18 48//26
f  49//26 29//18 42//22
f  42//1 30//1 43//1
f  43//27 38//24 50//27
f  39//23 44//24 31//23
f  44//24 50//27 38//24
f  51//25 40//19 45//25
f  46//1 44//1 36//1
f  37//21 47//28 46//21
f  51//1 47//1 40//1
f  41//1 45//1 52//1
f  52//2 45//2 41//2
f  48//26 29//18 49//26
f  48//26 53//29 41//22
f  42//22 54//30 49//26
f  55//1 42//1 43//1
f  50//27 56//31 43//27
f  50//1 44//1 46//1
f  45//25 57//32 51//25
f  58//28 46//21 47//28
f  59//1 47//1 51//1
f  52//1 45//1 57//1
f  57//2 45//2 52//2
f  52//30 41//22 53//29
f  48//26 49//26 53//29
f  53//33 48//33 60//34
f  61//29 49//26 54//30
f  54//1 42//1 55//1
f  55//31 43//27 56//31
f  62//31 56//31 50//27
f  58//1 50//1 46//1
f  63//32 51//25 57//32
f  47//28 59//35 58//28
f  63//1 59//1 51//1
f  52//1 57//1 64//1
f  64//2 57//2 52//2
f  52//30 53//29 64//36
f  61//29 53//29 49//26
f  60//34 48//33 65//34
f  60//37 66//37 67//37
f  67//33 53//33 60//34
f  61//38 68//39 49//38
f  54//30 69//36 61//29
f  70//1 54//1 55//1
f  56//31 71//40 55//31
f  62//31 71//40 56//31
f  62//1 50//1 58//1
f  57//32 72//41 63//32
f  73//35 58//28 59//35
f  74//1 59//1 63//1
f  64//1 57//1 72//1
f  72//2 57//2 64//2
f  53//29 61//29 64//36
f  75//33 65//34 48//33
f  65//34 76//42 60//34
f  77//37 67//37 66//37
f  78//37 66//37 60//37
f  49//38 68//39 79//38
f  80//37 81//37 68//37
f  80//38 68//39 61//38
f  64//36 61//29 69//36
f  69//1 54//1 70//1
f  70//40 55//31 71//40
f  71//1 62//1 73//1
f  73//1 62//1 58//1
f  82//41 63//32 72//41
f  59//35 74//43 73//35
f  82//1 74//1 63//1
f  64//1 72//1 83//1
f  83//2 72//2 64//2
f  75//44 84//44 65//44
f  85//42 60//34 76//42
f  76//44 65//44 86//44
f  66//45 87//45 77//45
f  78//46 88//46 66//46
f  85//37 78//37 60//37
f  89//39 79//38 68//39
f  90//37 68//37 81//37
f  81//44 91//44 80//44
f  80//37 91//37 81//37
f  69//36 92//47 64//36
f  93//1 69//1 70//1
f  71//40 94//48 70//40
f  95//1 71//1 73//1
f  72//41 96//49 82//41
f  95//43 73//35 74//43
f  97//1 74//1 82//1
f  83//1 72//1 96//1
f  96//2 72//2 83//2
f  83//47 64//36 92//47
f  87//44 65//44 84//44
f  76//42 98//50 85//42
f  86//44 65//44 88//44
f  99//44 76//44 86//44
f  88//51 87//51 66//51
f  86//52 88//52 78//52
f  100//37 78//37 85//37
f  89//44 101//44 79//44
f  68//39 102//53 89//39
f  103//37 68//37 90//37
f  81//54 101//54 90//54
f  91//44 81//44 104//44
f  104//37 81//37 91//37
f  92//1 69//1 93//1
f  93//48 70//40 94//48
f  94//1 71//1 95//1
f  105//49 82//41 96//49
f  74//43 97//55 95//43
f  105//1 97//1 82//1
f  83//1 96//1 106//1
f  106//2 96//2 83//2
f  83//47 92//47 106//56
f  88//44 65//44 87//44
f  107//50 85//42 98//50
f  98//44 76//44 99//44
f  99//57 86//57 100//57
f  100//58 86//58 78//58
f  107//37 100//37 85//37
f  108//44 79//44 101//44
f  109//44 101//44 89//44
f  110//53 89//39 102//53
f  102//37 68//37 103//37
f  90//59 101//59 103//59
f  111//1 92//1 93//1
f  94//48 112//60 93//48
f  113//1 94//1 95//1
f  105//49 96//49 114//61
f  113//55 95//43 97//55
f  115//1 97//1 105//1
f  106//1 96//1 116//1
f  116//2 96//2 106//2
f  117//56 106//56 92//47
f  107//50 98//50 118//62
f  119//44 98//44 99//44
f  120//63 99//63 100//63
f  120//37 100//37 107//37
f  101//64 109//64 103//64
f  110//44 109//44 89//44
f  102//53 121//65 110//53
f  122//37 102//37 103//37
f  117//1 92//1 111//1
f  111//60 93//48 112//60
f  112//1 94//1 113//1
f  116//61 114//61 96//49
f  114//1 115//1 105//1
f  113//55 97//55 123//66
f  115//66 123//66 97//55
f  106//1 116//1 124//1
f  124//2 116//2 106//2
f  106//56 117//56 124//67
f  125//62 118//62 98//50
f  118//37 126//37 107//37
f  127//44 98//44 119//44
f  120//68 119//68 99//68
f  126//37 120//37 107//37
f  109//69 128//69 103//69
f  128//44 109//44 110//44
f  129//65 110//53 121//65
f  121//37 102//37 122//37
f  103//70 128//70 122//70
f  130//1 117//1 111//1
f  111//60 112//60 130//71
f  123//1 112//1 113//1
f  114//61 116//61 131//72
f  132//1 115//1 114//1
f  123//66 115//66 133//73
f  124//1 116//1 134//1
f  134//2 116//2 124//2
f  135//67 124//67 117//56
f  118//62 125//62 136//74
f  125//44 98//44 127//44
f  137//37 126//37 118//37
f  126//75 127//75 119//75
f  126//76 119//76 120//76
f  138//44 128//44 110//44
f  129//44 138//44 110//44
f  129//65 121//65 139//77
f  140//37 121//37 122//37
f  128//78 138//78 122//78
f  141//1 117//1 130//1
f  142//71 130//71 112//60
f  142//1 112//1 123//1
f  134//72 131//72 116//61
f  131//1 143//1 114//1
f  132//73 133//73 115//66
f  143//1 132//1 114//1
f  133//1 142//1 123//1
f  124//1 134//1 144//1
f  144//2 134//2 124//2
f  124//67 135//67 144//79
f  135//1 117//1 141//1
f  145//74 136//74 125//62
f  136//37 137//37 118//37
f  146//44 125//44 127//44
f  137//80 127//80 126//80
f  147//44 138//44 129//44
f  148//77 139//77 121//65
f  139//44 147//44 129//44
f  148//37 121//37 140//37
f  122//81 138//81 140//81
f  130//71 142//71 141//82
f  131//72 134//72 149//79
f  135//1 143//1 131//1
f  133//73 132//73 150//83
f  143//83 150//83 132//73
f  151//1 142//1 133//1
f  144//79 149//79 134//72
f  149//79 144//79 135//67
f  143//1 135//1 141//1
f  136//74 145//74 152//84
f  145//44 125//44 139//44
f  153//37 137//37 136//37
f  125//44 146//44 139//44
f  137//85 146//85 127//85
f  140//86 138//86 147//86
f  139//77 148//77 154//87
f  155//44 147//44 139//44
f  156//37 148//37 140//37
f  151//82 141//82 142//71
f  149//1 135//1 131//1
f  150//1 151//1 133//1
f  150//83 143//83 151//82
f  141//82 151//82 143//83
f  157//84 152//84 145//74
f  152//37 158//37 136//37
f  154//44 145//44 139//44
f  153//88 146//88 137//88
f  158//37 153//37 136//37
f  146//44 155//44 139//44
f  140//89 147//89 156//89
f  158//87 154//87 148//77
f  156//90 147//90 155//90
f  153//37 148//37 156//37
f  152//84 157//84 158//87
f  157//44 145//44 154//44
f  153//91 155//91 146//91
f  158//37 148//37 153//37
f  154//87 158//87 157//84
f  156//92 155//92 153//92

# Mesh 'mesh1_mesh1-geometry' with 104 faces
g mesh1_mesh1-geometry
usemtl material_1_24
f  2//72 5//79 3//79
f  3//79 6//67 1//67
f  4//61 8//72 2//72
f  5//79 2//72 8//72
f  6//67 3//79 5//79
f  9//56 1//67 6//67
f  1//67 9//56 7//56
f  8//72 4//61 11//61
f  8//2 6//2 5//2
f  6//2 12//2 9//2
f  13//47 7//56 9//56
f  10//49 11//61 4//61
f  15//2 8//2 11//2
f  6//2 8//2 15//2
f  12//2 6//2 15//2
f  9//2 12//2 16//2
f  7//56 13//47 14//47
f  9//2 17//2 13//2
f  11//61 10//49 19//49
f  15//2 11//2 20//2
f  9//2 16//2 17//2
f  13//47 23//36 14//47
f  13//2 17//2 24//2
f  25//41 10//49 18//41
f  10//49 25//41 19//49
f  20//2 11//2 19//2
f  23//36 13//47 28//36
f  13//2 24//2 28//2
f  18//41 30//32 25//41
f  31//2 19//2 25//2
f  20//2 19//2 32//2
f  28//36 35//30 23//36
f  28//2 24//2 37//2
f  30//32 18//41 29//32
f  38//2 25//2 30//2
f  32//2 19//2 31//2
f  31//2 25//2 38//2
f  35//30 28//36 40//30
f  28//2 37//2 40//2
f  29//32 42//25 30//32
f  38//2 30//2 43//2
f  40//30 45//22 35//30
f  40//2 37//2 47//2
f  48//93 29//32 41//25
f  42//25 29//32 49//93
f  43//2 30//2 42//2
f  45//22 40//30 51//22
f  40//2 47//2 51//2
f  49//93 29//32 48//93
f  41//25 53//94 48//93
f  49//93 54//19 42//25
f  43//2 42//2 55//2
f  51//22 57//18 45//22
f  51//2 47//2 59//2
f  53//94 41//25 52//19
f  53//94 49//93 48//93
f  54//19 49//93 61//94
f  55//2 42//2 54//2
f  57//18 51//22 63//18
f  51//2 59//2 63//2
f  64//13 53//94 52//19
f  49//93 53//94 61//94
f  61//94 69//13 54//19
f  55//2 54//2 70//2
f  63//18 72//14 57//18
f  63//2 59//2 74//2
f  64//13 61//94 53//94
f  69//13 61//94 64//13
f  70//2 54//2 69//2
f  72//14 63//18 82//14
f  63//2 74//2 82//2
f  64//13 92//8 69//13
f  70//2 69//2 93//2
f  82//14 96//9 72//14
f  82//2 74//2 97//2
f  92//8 64//13 83//8
f  93//2 69//2 92//2
f  96//9 82//14 105//9
f  82//2 97//2 105//2
f  106//7 92//8 83//8
f  93//2 92//2 111//2
f  114//6 96//9 105//9
f  105//2 97//2 115//2
f  92//8 106//7 117//7
f  111//2 92//2 117//2
f  96//9 114//6 116//6
f  105//2 115//2 114//2
f  124//5 117//7 106//7
f  111//2 117//2 130//2
f  131//4 116//6 114//6
f  114//2 115//2 132//2
f  117//7 124//5 135//5
f  130//2 117//2 141//2
f  116//6 131//4 134//4
f  114//2 143//2 131//2
f  114//2 132//2 143//2
f  144//3 135//5 124//5
f  141//2 117//2 135//2
f  149//3 134//4 131//4
f  131//2 143//2 135//2
f  134//4 149//3 144//3
f  135//5 144//3 149//3
f  141//2 135//2 143//2
f  131//2 135//2 149//2

# Mesh 'mesh1_mesh1-geometry' with 72 faces
g mesh1_mesh1-geometry
usemtl material_3_24
f  15//83 21//82 12//82
f  12//82 22//71 16//71
f  20//73 26//83 15//83
f  21//82 15//83 26//83
f  22//71 12//82 21//82
f  27//60 16//71 22//71
f  16//71 27//60 17//60
f  27//60 24//48 17//60
f  26//83 20//73 33//73
f  33//2 21//2 26//2
f  21//2 33//2 22//2
f  22//2 34//2 27//2
f  24//48 27//60 36//48
f  32//66 33//73 20//73
f  22//2 33//2 34//2
f  27//2 34//2 39//2
f  27//2 39//2 36//2
f  36//48 37//40 24//48
f  31//55 34//66 32//66
f  44//43 31//55 38//43
f  33//73 32//66 34//66
f  34//66 31//55 39//55
f  36//2 39//2 44//2
f  37//40 36//48 46//40
f  50//35 38//43 43//35
f  31//55 44//43 39//55
f  38//43 50//35 44//43
f  36//2 44//2 46//2
f  46//40 47//31 37//40
f  43//35 56//28 50//35
f  46//2 44//2 50//2
f  47//31 46//40 58//31
f  56//28 43//35 55//28
f  50//35 56//28 62//28
f  46//2 50//2 58//2
f  58//31 59//27 47//31
f  55//28 71//21 56//28
f  56//28 71//21 62//28
f  58//2 50//2 62//2
f  59//27 58//31 73//27
f  71//21 55//28 70//21
f  73//2 62//2 71//2
f  58//2 62//2 73//2
f  73//27 74//24 59//27
f  70//21 94//17 71//21
f  73//2 71//2 95//2
f  74//24 73//27 95//24
f  94//17 70//21 93//17
f  95//2 71//2 94//2
f  95//24 97//23 74//24
f  93//17 112//16 94//17
f  95//2 94//2 113//2
f  97//23 95//24 113//23
f  112//16 93//17 111//16
f  113//2 94//2 112//2
f  123//20 97//23 113//23
f  97//23 123//20 115//20
f  130//12 112//16 111//16
f  113//2 112//2 123//2
f  133//15 115//20 123//20
f  112//16 130//12 142//12
f  123//2 112//2 142//2
f  115//20 133//15 132//15
f  123//2 142//2 133//2
f  141//10 142//12 130//12
f  150//11 132//15 133//15
f  132//15 150//11 143//11
f  133//2 142//2 151//2
f  142//12 141//10 151//10
f  133//2 151//2 150//2
f  151//10 143//11 150//11
f  143//11 151//10 141//10

# Mesh 'mesh1_mesh1-geometry' with 79 faces
g mesh1_mesh1-geometry
usemtl material_2_24
f  60//95 48//96 53//96
f  65//95 48//96 60//95
f  67//44 66//44 60//44
f  60//95 53//96 67//96
f  49//97 68//98 61//97
f  48//96 65//95 75//96
f  60//95 76//99 65//95
f  66//44 67//44 77//44
f  60//44 66//44 78//44
f  79//97 68//98 49//97
f  68//44 81//44 80//44
f  61//97 68//98 80//97
f  65//37 84//37 75//37
f  76//99 60//95 85//99
f  86//37 65//37 76//37
f  60//44 78//44 85//44
f  68//98 79//97 89//98
f  81//44 68//44 90//44
f  84//37 65//37 87//37
f  85//99 98//100 76//99
f  88//37 65//37 86//37
f  86//37 76//37 99//37
f  85//44 78//44 100//44
f  79//37 101//37 89//37
f  89//98 102//101 68//98
f  90//44 68//44 103//44
f  87//37 65//37 88//37
f  98//100 85//99 107//100
f  99//37 76//37 98//37
f  85//44 100//44 107//44
f  101//37 79//37 108//37
f  89//37 101//37 109//37
f  102//101 89//98 110//101
f  103//44 68//44 102//44
f  118//102 98//100 107//100
f  99//37 98//37 119//37
f  107//44 100//44 120//44
f  89//37 109//37 110//37
f  110//101 121//103 102//101
f  103//44 102//44 122//44
f  98//100 118//102 125//102
f  107//44 126//44 118//44
f  119//37 98//37 127//37
f  107//44 120//44 126//44
f  110//37 109//37 128//37
f  121//103 110//101 129//103
f  122//44 102//44 121//44
f  136//104 125//102 118//102
f  127//37 98//37 125//37
f  118//44 126//44 137//44
f  110//37 128//37 138//37
f  110//37 138//37 129//37
f  139//105 121//103 129//103
f  122//44 121//44 140//44
f  125//102 136//104 145//104
f  118//44 137//44 136//44
f  127//37 125//37 146//37
f  129//37 138//37 147//37
f  121//103 139//105 148//105
f  129//37 147//37 139//37
f  140//44 121//44 148//44
f  152//106 145//104 136//104
f  139//37 125//37 145//37
f  136//44 137//44 153//44
f  139//37 146//37 125//37
f  154//107 148//105 139//105
f  139//37 147//37 155//37
f  140//44 148//44 156//44
f  145//104 152//106 157//106
f  136//44 158//44 152//44
f  139//37 145//37 154//37
f  136//44 153//44 158//44
f  139//37 155//37 146//37
f  148//105 154//107 158//107
f  156//44 148//44 153//44
f  158//107 157//106 152//106
f  154//37 145//37 157//37
f  153//44 148//44 158//44
f  157//106 158//107 154//107

# Mesh 'mesh1_mesh1-geometry' with 25 faces
g mesh1_mesh1-geometry
usemtl material_4_24
f  77//108 87//108 66//108
f  66//109 88//109 78//109
f  66//110 87//110 88//110
f  78//111 88//111 86//111
f  90//112 101//112 81//112
f  100//113 86//113 99//113
f  78//114 86//114 100//114
f  103//115 101//115 90//115
f  100//116 99//116 120//116
f  103//117 109//117 101//117
f  99//118 119//118 120//118
f  103//119 128//119 109//119
f  122//120 128//120 103//120
f  119//121 127//121 126//121
f  120//122 119//122 126//122
f  122//123 138//123 128//123
f  126//124 127//124 137//124
f  140//125 138//125 122//125
f  127//126 146//126 137//126
f  147//127 138//127 140//127
f  137//128 146//128 153//128
f  156//129 147//129 140//129
f  155//130 147//130 156//130
f  146//131 155//131 153//131
f  153//132 155//132 156//132

# Mesh 'mesh2_mesh2-geometry' with 24 faces
g mesh2_mesh2-geometry
usemtl material_0_0
l  64 52
l  83 64
l  52 41
l  106 83
l  41 29
l  124 106
l  29 18
l  144 124
l  18 10
l  134 144
l  10 4
l  116 134
l  4 2
l  96 116
l  2 3
l  72 96
l  3 1
l  57 72
l  1 7
l  45 57
l  7 14
l  35 45
l  14 23
l  23 35

# Mesh 'mesh3_mesh3-geometry' with 1 faces
g mesh3_mesh3-geometry
usemtl material_0_0
l  159 79

# Mesh 'mesh4_mesh4-geometry' with 2 faces
g mesh4_mesh4-geometry
usemtl material_0_0
l  160 161
l  67 160

# Mesh 'mesh5_mesh5-geometry' with 1 faces
g mesh5_mesh5-geometry
usemtl material_0_0
l  80 81

# Mesh 'mesh6_mesh6-geometry' with 2 faces
g mesh6_mesh6-geometry
usemtl material_0_0
l  162 163
l  75 162

# Mesh 'mesh7_mesh7-geometry' with 1 faces
g mesh7_mesh7-geometry
usemtl material_0_0
l  56 164

