# File produced by Open Asset Import Library (http://www.assimp.sf.net)
# (assimp v3.2.202087883)

mtllib model_normalized.mtl

# 119 vertex positions
v -0.197767 -0.377885 0.055895
v -0.197767 -0.377885 0.161761
v -0.204735 -0.377885 0.108828
v -0.177337 -0.377885 0.006570
v -0.204735 0.303838 0.108828
v -0.197767 0.303838 0.055895
v -0.177337 0.303838 0.006570
v -0.177337 -0.377885 0.211087
v -0.197767 0.303838 0.161761
v -0.144834 0.303838 -0.035787
v -0.144834 -0.377885 -0.035787
v -0.186983 0.303838 0.058786
v -0.167664 0.303838 0.012153
v -0.144834 -0.377885 0.253444
v -0.177337 0.303838 0.211087
v -0.193569 0.303838 0.108828
v -0.102476 -0.377885 -0.068289
v -0.136938 0.303838 -0.027891
v -0.186983 0.303838 0.158871
v -0.102476 0.303838 -0.068289
v -0.102476 -0.377885 0.285945
v -0.144834 0.303838 0.253444
v -0.167664 0.303838 0.205503
v -0.053150 -0.377885 -0.088720
v -0.096893 0.303838 -0.058618
v -0.053150 -0.377885 0.306376
v -0.102476 0.303838 0.285945
v -0.053150 -0.242265 -0.088720
v -0.053150 0.303838 -0.088720
v -0.053150 0.303838 0.306376
v -0.136938 0.303838 0.245547
v -0.053150 0.169490 -0.088720
v -0.000218 -0.377885 -0.095689
v -0.050262 0.303838 -0.077933
v -0.000218 0.303838 0.313345
v -0.096893 0.303838 0.276274
v -0.000218 0.303838 -0.095689
v -0.000218 -0.377885 0.313345
v -0.050262 0.303838 0.295589
v 0.052715 -0.377885 -0.088720
v -0.000218 0.303838 -0.084522
v 0.052715 0.303838 0.306376
v -0.000218 0.303838 0.302178
v 0.052715 -0.233314 -0.088720
v 0.052715 -0.377885 0.306376
v 0.049822 0.303838 -0.077933
v 0.052715 0.168750 -0.088720
v 0.102041 -0.377885 -0.068289
v 0.102041 -0.377885 0.285945
v 0.052715 0.303838 -0.088720
v 0.102041 0.303838 0.285945
v 0.049822 0.303838 0.295589
v 0.102041 0.303838 -0.068289
v 0.096453 0.303838 -0.058618
v 0.096453 0.303838 0.276274
v 0.144394 -0.377885 -0.035787
v 0.144394 0.303838 0.253444
v 0.136497 0.303838 0.245547
v 0.144394 0.303838 -0.035787
v 0.144394 -0.377885 0.253444
v 0.136497 0.303838 -0.027891
v 0.176896 0.303838 0.006570
v 0.176896 -0.377885 0.006570
v 0.176896 -0.377885 0.211087
v 0.167229 0.303838 0.205503
v 0.167229 0.303838 0.012153
v 0.176896 0.303838 0.211087
v 0.197327 0.303838 0.055895
v 0.186542 0.303838 0.058786
v 0.197327 -0.377885 0.055895
v 0.197327 -0.377885 0.161761
v 0.186542 0.303838 0.158871
v 0.197327 0.303838 0.161761
v 0.204299 0.303838 0.108828
v 0.193129 0.303838 0.108828
v 0.204299 -0.377885 0.108828
v -0.053150 0.162523 -0.141655
v 0.052715 0.161782 -0.141655
v -0.053150 0.142090 -0.190981
v 0.052715 0.141351 -0.190981
v -0.053150 0.109588 -0.233334
v 0.052715 0.108850 -0.233334
v -0.053150 0.067232 -0.265836
v 0.052715 0.066493 -0.265836
v -0.053150 0.017906 -0.286267
v 0.052715 0.017168 -0.286267
v -0.053150 -0.035027 -0.293239
v 0.052715 -0.035765 -0.293239
v -0.053150 -0.061788 -0.289713
v 0.052715 -0.068897 -0.288875
v -0.053150 -0.087959 -0.286267
v 0.052715 -0.088699 -0.286267
v -0.053150 -0.137285 -0.265836
v 0.052715 -0.138024 -0.265836
v -0.053150 -0.179642 -0.233334
v 0.052715 -0.180381 -0.233334
v -0.053150 -0.212144 -0.190981
v 0.052715 -0.212882 -0.190981
v -0.053150 -0.229876 -0.148167
v 0.052715 -0.233314 -0.141655
v -0.053150 -0.238127 -0.108576
v -0.005419 -0.231426 -0.121365
v -0.053150 -0.242026 -0.089865
v 0.029596 -0.232563 -0.101701
v 0.052715 -0.237213 -0.088862
v 0.019483 -0.238496 -0.084033
v 0.052715 -0.233314 -0.107573
v -0.015532 -0.237359 -0.103696
v 0.043992 -0.232691 -0.090837
v 0.035178 -0.232319 -0.092578
v 0.026284 -0.232198 -0.093936
v 0.017346 -0.232330 -0.094909
v 0.008376 -0.232712 -0.095494
v -0.000593 -0.233345 -0.095689
v -0.009547 -0.234227 -0.095494
v -0.018447 -0.235356 -0.094909
v -0.027288 -0.236728 -0.093936
v -0.036032 -0.238340 -0.092578
v -0.044658 -0.240187 -0.090837

# 0 UV coordinates

# 60 vertex normals
vn 0 -0.0254 0
vn -0.0245345 0 0.006574
vn -0.0254 0 0
vn -0.0245345 0 -0.006574
vn -0.021997 0 -0.0127
vn -0.0179605 0 -0.0179605
vn -0.021997 0 0.0127
vn 0 0.0254 0
vn -0.0127 0 -0.021997
vn -0.0179605 0 0.0179605
vn -0.006574 0 -0.0245345
vn -0.0127 0 0.021997
vn -0.006574 0 0.0245345
vn 0 0 -0.0254
vn 0 0 0.0254
vn 0.006574 0 -0.0245345
vn 0.006574 0 0.0245345
vn 0.0127 0 -0.021997
vn 0.0127 0 0.021997
vn 0.0179605 0 -0.0179605
vn 0.0179605 0 0.0179605
vn 0.021997 0 -0.0127
vn 0.021997 0 0.0127
vn 0.0245345 0 -0.006574
vn 0.0245345 0 0.006574
vn 0.0254 0 0
vn 0.000175692 0.0251821 -0.00331528
vn 0.000171171 0.024534 -0.00657385
vn -0.000175692 -0.0251821 0.00331528
vn -0.000171171 -0.024534 0.00657385
vn 0.000153467 0.0219966 -0.0126998
vn -0.000153467 -0.0219966 0.0126998
vn 0.000125324 0.0179603 -0.0179603
vn -0.000125324 -0.0179603 0.0179603
vn 8.86206e-05 0.0126999 -0.0219969
vn -8.86206e-05 -0.0126999 0.0219969
vn 4.58724e-05 0.00657398 -0.0245345
vn -4.58724e-05 -0.00657398 0.0245345
vn -2.31394e-05 -0.00331536 -0.0251827
vn 2.31394e-05 0.00331536 0.0251827
vn -4.58724e-05 -0.00657398 -0.0245345
vn 4.58724e-05 0.00657398 0.0245345
vn -8.86206e-05 -0.0126999 -0.0219969
vn 8.86206e-05 0.0126999 0.0219969
vn -0.000125324 -0.0179603 -0.0179603
vn 0.000125324 0.0179603 0.0179603
vn -0.000153467 -0.0219966 -0.0126998
vn 0.000153467 0.0219966 0.0126998
vn -0.000163728 -0.023466 -0.00971994
vn 0.000163728 0.023466 0.00971994
vn -0.000488391 -0.0248612 -0.00518091
vn 0.000488391 0.0248612 0.00518091
vn -0.000824306 -0.0253866 0
vn 0.00103916 -0.0251625 -0.00330553
vn 0.000824306 0.0253866 0
vn -0.00103916 0.0251625 0.00330553
vn -0.00117838 0.024839 0.00517629
vn -0.00287937 0.0243749 0.006537
vn 0.00117838 -0.024839 -0.00517629
vn 0.00287937 -0.0243749 -0.006537

# Mesh 'mesh1_mesh1-geometry' with 126 faces
g mesh1_mesh1-geometry
usemtl material_0_24
f  1//1 2//1 3//1
f  2//1 1//1 4//1
f  2//2 5//3 3//3
f  3//3 6//4 1//4
f  1//4 7//5 4//5
f  2//1 4//1 8//1
f  5//3 2//2 9//2
f  6//4 3//3 5//3
f  7//5 1//4 6//4
f  10//6 4//5 7//5
f  8//1 4//1 11//1
f  8//7 9//2 2//2
f  9//8 6//8 5//8
f  6//8 12//8 7//8
f  4//5 10//6 11//6
f  7//8 13//8 10//8
f  8//1 11//1 14//1
f  9//2 8//7 15//7
f  6//8 9//8 16//8
f  12//8 6//8 16//8
f  7//8 12//8 13//8
f  10//6 17//9 11//6
f  10//8 13//8 18//8
f  14//1 11//1 17//1
f  14//10 15//7 8//7
f  19//8 9//8 15//8
f  16//8 9//8 19//8
f  17//9 10//6 20//9
f  10//8 18//8 20//8
f  14//1 17//1 21//1
f  15//7 14//10 22//10
f  19//8 15//8 23//8
f  20//9 24//11 17//9
f  20//8 18//8 25//8
f  21//1 17//1 26//1
f  27//12 14//10 21//12
f  14//10 27//12 22//10
f  23//8 15//8 22//8
f  24//11 20//9 28//11
f  26//1 17//1 24//1
f  20//8 25//8 29//8
f  30//13 21//12 26//13
f  21//12 30//13 27//12
f  31//8 22//8 27//8
f  23//8 22//8 31//8
f  28//11 20//9 32//11
f  28//11 33//14 24//11
f  26//1 24//1 33//1
f  29//8 25//8 34//8
f  32//11 20//9 29//11
f  26//13 35//15 30//13
f  36//8 27//8 30//8
f  31//8 27//8 36//8
f  37//14 28//11 32//11
f  33//14 28//11 37//14
f  26//1 33//1 38//1
f  29//8 34//8 37//8
f  37//14 32//11 29//11
f  35//15 26//13 38//15
f  39//8 30//8 35//8
f  36//8 30//8 39//8
f  37//14 40//16 33//14
f  38//1 33//1 40//1
f  37//8 34//8 41//8
f  38//15 42//17 35//15
f  39//8 35//8 43//8
f  40//16 37//14 44//16
f  38//1 40//1 45//1
f  37//8 41//8 46//8
f  42//17 38//15 45//17
f  43//8 35//8 42//8
f  44//16 37//14 47//16
f  44//16 48//18 40//16
f  45//1 40//1 49//1
f  37//8 46//8 50//8
f  45//17 51//19 42//17
f  43//8 42//8 52//8
f  47//16 37//14 50//16
f  53//18 44//16 47//16
f  48//18 44//16 53//18
f  49//1 40//1 48//1
f  51//19 45//17 49//19
f  50//8 46//8 54//8
f  55//8 42//8 51//8
f  52//8 42//8 55//8
f  53//18 47//16 50//16
f  53//18 56//20 48//18
f  49//1 48//1 56//1
f  49//19 57//21 51//19
f  50//8 54//8 53//8
f  55//8 51//8 58//8
f  56//20 53//18 59//20
f  49//1 56//1 60//1
f  57//21 49//19 60//21
f  58//8 51//8 57//8
f  53//8 54//8 61//8
f  53//8 61//8 59//8
f  62//22 56//20 59//20
f  60//1 56//1 63//1
f  64//23 57//21 60//21
f  58//8 57//8 65//8
f  59//8 61//8 66//8
f  56//20 62//22 63//22
f  59//8 66//8 62//8
f  60//1 63//1 64//1
f  57//21 64//23 67//23
f  65//8 57//8 67//8
f  68//24 63//22 62//22
f  62//8 66//8 69//8
f  64//1 63//1 70//1
f  71//25 67//23 64//23
f  65//8 67//8 72//8
f  63//22 68//24 70//24
f  62//8 69//8 68//8
f  64//1 70//1 71//1
f  67//23 71//25 73//25
f  72//8 67//8 73//8
f  74//26 70//24 68//24
f  68//8 69//8 75//8
f  71//1 70//1 76//1
f  76//26 73//25 71//25
f  72//8 73//8 75//8
f  70//24 74//26 76//26
f  68//8 73//8 74//8
f  68//8 75//8 73//8
f  73//25 76//26 74//26

# Mesh 'mesh1_mesh1-geometry' with 126 faces
g mesh1_mesh1-geometry
usemtl material_1_24
f  3//8 2//8 1//8
f  4//8 1//8 2//8
f  3//26 5//26 2//24
f  1//25 6//25 3//26
f  4//23 7//23 1//25
f  8//8 4//8 2//8
f  9//24 2//24 5//26
f  5//26 3//26 6//25
f  6//25 1//25 7//23
f  7//23 4//23 10//21
f  11//8 4//8 8//8
f  2//24 9//24 8//22
f  5//1 6//1 9//1
f  7//1 12//1 6//1
f  11//21 10//21 4//23
f  10//1 13//1 7//1
f  14//8 11//8 8//8
f  15//22 8//22 9//24
f  16//1 9//1 6//1
f  16//1 6//1 12//1
f  13//1 12//1 7//1
f  11//21 17//19 10//21
f  18//1 13//1 10//1
f  17//8 11//8 14//8
f  8//22 15//22 14//20
f  15//1 9//1 19//1
f  19//1 9//1 16//1
f  20//19 10//21 17//19
f  20//1 18//1 10//1
f  21//8 17//8 14//8
f  22//20 14//20 15//22
f  23//1 15//1 19//1
f  17//19 24//17 20//19
f  25//1 18//1 20//1
f  26//8 17//8 21//8
f  21//18 14//20 27//18
f  22//20 27//18 14//20
f  22//1 15//1 23//1
f  28//17 20//19 24//17
f  24//8 17//8 26//8
f  29//1 25//1 20//1
f  26//16 21//18 30//16
f  27//18 30//16 21//18
f  27//1 22//1 31//1
f  31//1 22//1 23//1
f  32//17 20//19 28//17
f  24//17 33//15 28//17
f  33//8 24//8 26//8
f  34//1 25//1 29//1
f  29//17 20//19 32//17
f  30//16 35//14 26//16
f  30//1 27//1 36//1
f  36//1 27//1 31//1
f  32//17 28//17 37//15
f  37//15 28//17 33//15
f  38//8 33//8 26//8
f  37//1 34//1 29//1
f  29//17 32//17 37//15
f  38//14 26//16 35//14
f  35//1 30//1 39//1
f  39//1 30//1 36//1
f  33//15 40//13 37//15
f  40//8 33//8 38//8
f  41//1 34//1 37//1
f  35//14 42//11 38//14
f  43//1 35//1 39//1
f  44//13 37//15 40//13
f  45//8 40//8 38//8
f  46//1 41//1 37//1
f  45//11 38//14 42//11
f  42//1 35//1 43//1
f  47//13 37//15 44//13
f  40//13 48//12 44//13
f  49//8 40//8 45//8
f  50//1 46//1 37//1
f  42//11 51//9 45//11
f  52//1 42//1 43//1
f  50//13 37//15 47//13
f  47//13 44//13 53//12
f  53//12 44//13 48//12
f  48//8 40//8 49//8
f  49//9 45//11 51//9
f  54//1 46//1 50//1
f  51//1 42//1 55//1
f  55//1 42//1 52//1
f  50//13 47//13 53//12
f  48//12 56//10 53//12
f  56//8 48//8 49//8
f  51//9 57//6 49//9
f  53//1 54//1 50//1
f  58//1 51//1 55//1
f  59//10 53//12 56//10
f  60//8 56//8 49//8
f  60//6 49//9 57//6
f  57//1 51//1 58//1
f  61//1 54//1 53//1
f  59//1 61//1 53//1
f  59//10 56//10 62//7
f  63//8 56//8 60//8
f  60//6 57//6 64//5
f  65//1 57//1 58//1
f  66//1 61//1 59//1
f  63//7 62//7 56//10
f  62//1 66//1 59//1
f  64//8 63//8 60//8
f  67//5 64//5 57//6
f  67//1 57//1 65//1
f  62//7 63//7 68//2
f  69//1 66//1 62//1
f  70//8 63//8 64//8
f  64//5 67//5 71//4
f  72//1 67//1 65//1
f  70//2 68//2 63//7
f  68//1 69//1 62//1
f  71//8 70//8 64//8
f  73//4 71//4 67//5
f  73//1 67//1 72//1
f  68//2 70//2 74//3
f  75//1 69//1 68//1
f  76//8 70//8 71//8
f  71//4 73//4 76//3
f  75//1 73//1 72//1
f  76//3 74//3 70//2
f  74//1 73//1 68//1
f  73//1 75//1 68//1
f  74//3 76//3 73//4

# Mesh 'mesh2_mesh2-geometry' with 66 faces
g mesh2_mesh2-geometry
usemtl material_0_24
f  47//27 77//28 32//27
f  77//28 47//27 78//28
f  32//29 77//30 47//29
f  78//30 47//29 77//30
f  78//28 79//31 77//28
f  77//30 79//32 78//30
f  79//31 78//28 80//31
f  80//32 78//30 79//32
f  80//31 81//33 79//31
f  79//32 81//34 80//32
f  81//33 80//31 82//33
f  82//34 80//32 81//34
f  82//33 83//35 81//33
f  81//34 83//36 82//34
f  83//35 82//33 84//35
f  84//36 82//34 83//36
f  84//35 85//37 83//35
f  83//36 85//38 84//36
f  85//37 84//35 86//37
f  86//38 84//36 85//38
f  86//37 87//14 85//37
f  85//38 87//15 86//38
f  87//14 86//37 88//14
f  88//15 86//38 87//15
f  88//14 89//39 87//14
f  87//15 89//40 88//15
f  90//39 89//39 88//14
f  88//15 89//40 90//40
f  90//39 91//41 89//39
f  89//40 91//42 90//40
f  91//41 90//39 92//41
f  92//42 90//40 91//42
f  92//41 93//43 91//41
f  91//42 93//44 92//42
f  93//43 92//41 94//43
f  94//44 92//42 93//44
f  94//43 95//45 93//43
f  93//44 95//46 94//44
f  95//45 94//43 96//45
f  96//46 94//44 95//46
f  96//45 97//47 95//45
f  95//46 97//48 96//46
f  97//47 96//45 98//47
f  98//48 96//46 97//48
f  98//47 99//49 97//47
f  97//48 99//50 98//48
f  99//49 98//47 100//49
f  100//50 98//48 99//50
f  100//51 101//51 99//51
f  99//52 101//52 100//52
f  100//53 102//54 99//53
f  99//55 102//56 100//55
f  101//51 100//51 103//51
f  103//52 100//52 101//52
f  102//54 100//53 104//54
f  104//56 100//55 102//56
f  103//51 100//51 28//51
f  28//52 100//52 103//52
f  105//57 101//57 103//57
f  104//54 100//53 44//53
f  44//55 100//55 104//56
f  104//56 102//56 106//58
f  101//57 105//57 107//57
f  44//53 100//53 107//53
f  107//55 100//55 44//55
f  108//58 106//58 102//56

# Mesh 'mesh2_mesh2-geometry' with 4 faces
g mesh2_mesh2-geometry
usemtl material_1_24
f  103//59 101//59 105//59
f  106//60 102//54 104//54
f  107//59 105//59 101//59
f  102//54 106//60 108//60

# Mesh 'mesh3_mesh3-geometry' with 12 faces
g mesh3_mesh3-geometry
usemtl material_1_0
l  44 109
l  109 110
l  110 111
l  111 112
l  112 113
l  113 114
l  114 115
l  115 116
l  116 117
l  117 118
l  118 119
l  119 28

