# File produced by Open Asset Import Library (http://www.assimp.sf.net)
# (assimp v3.2.202087883)

mtllib model_normalized.mtl

# 117 vertex positions
v 0.020253 -0.245316 0.304867
v 0.138577 -0.245316 0.255663
v 0.082654 -0.245316 0.288054
v 0.184211 -0.245316 0.209902
v -0.044372 -0.245316 0.304957
v 0.216446 -0.245316 0.153890
v -0.106820 -0.245316 0.288317
v 0.233086 -0.245316 0.091443
v -0.162832 -0.245316 0.256082
v 0.232996 -0.245316 0.026817
v -0.208593 -0.245316 0.210448
v 0.216183 -0.245316 -0.035584
v -0.240984 -0.245316 0.154525
v 0.183793 -0.245316 -0.091507
v -0.257797 -0.245316 0.092124
v 0.138031 -0.245316 -0.137141
v -0.257887 -0.245316 0.027499
v 0.082019 -0.245316 -0.169376
v -0.241247 -0.245316 -0.034949
v 0.019572 -0.245316 -0.186016
v -0.209012 -0.245316 -0.090961
v -0.045054 -0.245316 -0.185926
v -0.163378 -0.245316 -0.136722
v -0.107455 -0.245316 -0.169113
v 0.019572 0.165977 -0.186016
v 0.090459 0.165977 -0.339942
v 0.047464 0.165977 -0.178584
v 0.096672 0.195531 -0.363256
v 0.047464 0.195531 -0.178584
v 0.015764 0.165977 -0.187031
v 0.019572 0.195531 -0.186016
v 0.015764 0.195531 -0.187031
v 0.058760 0.165977 -0.348388
v 0.090459 -0.037297 -0.339942
v 0.064972 0.195531 -0.371702
v 0.096672 -0.061096 -0.363256
v 0.064972 -0.061096 -0.371702
v 0.058760 -0.038029 -0.348388
v 0.047212 -0.061096 -0.177639
v 0.015512 -0.038029 -0.186086
v 0.047212 -0.037297 -0.177639
v 0.015512 -0.061096 -0.186086
v 0.138577 0.195531 0.255663
v 0.020253 0.195531 0.304867
v 0.082654 0.195531 0.288054
v 0.070460 0.195531 0.258730
v -0.044372 0.195531 0.304957
v 0.184211 0.195531 0.209902
v 0.016065 0.195531 0.273386
v -0.106820 0.195531 0.288317
v 0.119208 0.195531 0.230494
v -0.040271 0.195531 0.273464
v 0.216446 0.195531 0.153890
v -0.094707 0.195531 0.258959
v 0.187088 0.195531 0.141777
v 0.233086 0.195531 0.091443
v 0.158988 0.195531 0.190604
v 0.119208 -0.213299 0.230494
v 0.016065 -0.213299 0.273386
v 0.070460 -0.213299 0.258730
v -0.040271 -0.213299 0.273464
v -0.162832 0.195531 0.256082
v 0.201593 0.195531 0.087341
v 0.232996 0.195531 0.026817
v 0.158988 -0.213299 0.190604
v -0.143534 0.195531 0.230859
v -0.094707 -0.213299 0.258959
v 0.201515 0.195531 0.031006
v -0.208593 0.195531 0.210448
v 0.187088 -0.213299 0.141777
v 0.216183 0.195531 -0.035584
v -0.183424 0.195531 0.191079
v 0.201593 -0.213299 0.087341
v -0.143534 -0.213299 0.230859
v 0.186859 0.195531 -0.023390
v 0.201515 -0.213299 0.031006
v -0.240984 0.195531 0.154525
v 0.158623 0.195531 -0.072138
v 0.183793 0.195531 -0.091507
v -0.183424 -0.213299 0.191079
v 0.186859 -0.213299 -0.023390
v -0.211659 0.195531 0.142331
v 0.118733 0.195531 -0.111918
v -0.211659 -0.213299 0.142331
v -0.257797 0.195531 0.092124
v 0.138031 0.195531 -0.137141
v 0.158623 -0.213299 -0.072138
v -0.226315 0.195531 0.087935
v 0.069906 0.195531 -0.140018
v -0.226315 -0.213299 0.087935
v 0.118733 -0.213299 -0.111918
v -0.226394 0.195531 0.031600
v -0.257887 0.195531 0.027499
v 0.082019 0.195531 -0.169376
v -0.226394 -0.213299 0.031600
v 0.069906 -0.213299 -0.140018
v -0.211889 0.195531 -0.022836
v 0.015470 0.195531 -0.154523
v -0.211889 -0.213299 -0.022836
v -0.241247 0.195531 -0.034949
v 0.050795 0.195531 -0.177696
v 0.015470 -0.213299 -0.154523
v -0.183789 0.195531 -0.071663
v -0.209012 0.195531 -0.090961
v -0.040865 0.195531 -0.154444
v -0.183789 -0.213299 -0.071663
v -0.144009 0.195531 -0.111553
v -0.040865 -0.213299 -0.154444
v -0.095260 0.195531 -0.139788
v -0.163378 0.195531 -0.136722
v -0.144009 -0.213299 -0.111553
v -0.045054 0.195531 -0.185926
v -0.095260 -0.213299 -0.139788
v -0.107455 0.195531 -0.169113
v 0.116998 0.227055 -0.426146
v 0.113666 0.227055 -0.427034
v 0.015764 -0.245316 -0.187031

# 0 UV coordinates

# 34 vertex normals
vn -0 -0.0254 0
vn 0.0245436 -0 0.00653992
vn 0 0.0254 0
vn -0.0245436 0 -0.00653992
vn -0.00653992 0 0.0245436
vn 0.00653992 0 -0.0245436
vn -0.000548039 0.0253937 -0.000146027
vn 0.0154905 0 0.0201297
vn 0.00975274 0 0.023453
vn -0.00975274 0 -0.023453
vn -0.0154905 0 -0.0201297
vn 0.00335034 0 0.0251781
vn -0.00335034 0 -0.0251781
vn 0.0201726 0 0.0154345
vn -0.0201726 0 -0.0154345
vn -0.00328039 0 0.0251873
vn 0.00328039 0 -0.0251873
vn -0.00968756 0 0.02348
vn 0.00968756 0 -0.02348
vn 0.02348 0 0.00968756
vn -0.02348 0 -0.00968756
vn -0.0154345 0 0.0201726
vn 0.0154345 0 -0.0201726
vn 0.0251873 0 0.00328039
vn -0.0251873 0 -0.00328039
vn 0.0251781 0 -0.00335034
vn -0.0251781 0 0.00335034
vn -0.0201297 0 0.0154905
vn 0.0201297 0 -0.0154905
vn 0.023453 0 -0.00975274
vn -0.023453 0 0.00975274
vn -3.52897e-05 0 -0.0254
vn 3.52897e-05 0 0.0254
vn 0.000548039 -0.0253937 0.000146027

# Mesh 'mesh1_mesh1-geometry' with 50 faces
g mesh1_mesh1-geometry
usemtl material_0_24
f  1//1 2//1 3//1
f  2//1 1//1 4//1
f  4//1 1//1 5//1
f  4//1 5//1 6//1
f  6//1 5//1 7//1
f  6//1 7//1 8//1
f  8//1 7//1 9//1
f  8//1 9//1 10//1
f  10//1 9//1 11//1
f  10//1 11//1 12//1
f  12//1 11//1 13//1
f  12//1 13//1 14//1
f  14//1 13//1 15//1
f  14//1 15//1 16//1
f  16//1 15//1 17//1
f  16//1 17//1 18//1
f  18//1 17//1 19//1
f  18//1 19//1 20//1
f  20//1 19//1 21//1
f  20//1 21//1 22//1
f  22//1 21//1 23//1
f  22//1 23//1 24//1
f  25//1 26//1 27//1
f  27//2 28//2 29//2
f  26//1 25//1 30//1
f  26//2 28//2 27//2
f  28//3 31//3 29//3
f  31//3 28//3 32//3
f  26//1 30//1 33//1
f  34//2 28//2 26//2
f  32//4 33//4 30//4
f  32//3 28//3 35//3
f  33//5 34//5 26//5
f  34//2 36//2 28//2
f  35//4 33//4 32//4
f  28//6 37//6 35//6
f  34//5 33//5 38//5
f  36//2 34//2 39//2
f  37//6 28//6 36//6
f  35//4 38//4 33//4
f  37//4 38//4 35//4
f  40//7 34//7 38//7
f  41//2 39//2 34//2
f  42//1 36//1 39//1
f  36//1 42//1 37//1
f  37//4 40//4 38//4
f  34//7 40//7 41//7
f  40//5 39//5 41//5
f  39//5 40//5 42//5
f  40//4 37//4 42//4

# Mesh 'mesh1_mesh1-geometry' with 94 faces
g mesh1_mesh1-geometry
usemtl material_1_24
f  3//3 2//3 1//3
f  4//3 1//3 2//3
f  5//3 1//3 4//3
f  6//3 5//3 4//3
f  43//3 44//3 45//3
f  46//3 47//3 44//3
f  7//3 5//3 6//3
f  44//3 43//3 48//3
f  47//3 46//3 49//3
f  44//3 48//3 46//3
f  47//3 49//3 50//3
f  8//3 7//3 6//3
f  46//3 48//3 51//3
f  50//3 49//3 52//3
f  9//3 7//3 8//3
f  51//3 48//3 53//3
f  50//3 52//3 54//3
f  10//3 9//3 8//3
f  55//3 53//3 56//3
f  51//3 53//3 57//3
f  58//3 59//3 60//3
f  59//3 58//3 61//3
f  50//3 54//3 62//3
f  11//3 9//3 10//3
f  63//3 56//3 64//3
f  57//3 53//3 55//3
f  55//3 56//3 63//3
f  61//3 58//3 65//3
f  62//3 54//3 66//3
f  61//3 65//3 67//3
f  12//3 11//3 10//3
f  63//3 64//3 68//3
f  62//3 66//3 69//3
f  67//3 65//3 70//3
f  13//3 11//3 12//3
f  68//3 64//3 71//3
f  69//3 66//3 72//3
f  67//3 70//3 73//3
f  67//3 73//3 74//3
f  14//3 13//3 12//3
f  68//3 71//3 75//3
f  74//3 73//3 76//3
f  69//3 72//3 77//3
f  15//3 13//3 14//3
f  78//3 71//3 79//3
f  75//3 71//3 78//3
f  80//3 76//3 81//3
f  74//3 76//3 80//3
f  77//3 72//3 82//3
f  16//3 15//3 14//3
f  78//3 79//3 83//3
f  80//3 81//3 84//3
f  77//3 82//3 85//3
f  17//3 15//3 16//3
f  83//3 79//3 86//3
f  84//3 81//3 87//3
f  85//3 82//3 88//3
f  18//3 17//3 16//3
f  83//3 86//3 89//3
f  90//3 87//3 91//3
f  84//3 87//3 90//3
f  85//3 88//3 92//3
f  85//3 92//3 93//3
f  19//3 17//3 18//3
f  89//3 86//3 94//3
f  95//3 91//3 96//3
f  90//3 91//3 95//3
f  93//3 92//3 97//3
f  20//3 19//3 18//3
f  89//3 94//3 98//3
f  95//3 96//3 99//3
f  93//3 97//3 100//3
f  21//3 19//3 20//3
f  98//3 94//3 101//3
f  99//3 96//3 102//3
f  100//3 97//3 103//3
f  100//3 103//3 104//3
f  22//3 21//3 20//3
f  98//3 101//3 105//3
f  99//3 102//3 106//3
f  104//3 103//3 107//3
f  23//3 21//3 22//3
f  105//3 101//3 29//3
f  106//3 102//3 108//3
f  104//3 109//3 110//3
f  104//3 107//3 109//3
f  24//3 23//3 22//3
f  105//3 29//3 31//3
f  106//3 108//3 111//3
f  110//3 109//3 112//3
f  105//3 31//3 109//3
f  111//3 108//3 113//3
f  110//3 112//3 114//3
f  109//3 31//3 112//3

# Mesh 'mesh1_mesh1-geometry' with 200 faces
g mesh1_mesh1-geometry
usemtl material_3_24
f  2//8 45//9 3//9
f  3//10 45//10 2//11
f  3//9 44//12 1//12
f  1//13 44//13 3//10
f  4//14 43//8 2//8
f  2//11 43//11 4//15
f  45//9 2//8 43//8
f  43//11 2//11 45//10
f  44//12 3//9 45//9
f  45//10 3//10 44//13
f  47//16 1//12 44//12
f  44//13 1//13 47//17
f  1//12 47//16 5//16
f  5//17 47//17 1//13
f  43//8 4//14 48//14
f  48//15 4//15 43//11
f  50//18 5//16 47//16
f  47//17 5//17 50//19
f  6//20 48//14 4//14
f  4//15 48//15 6//21
f  5//16 50//18 7//18
f  7//19 50//19 5//17
f  48//14 6//20 53//20
f  53//21 6//21 48//15
f  46//10 59//13 49//13
f  49//12 59//12 46//9
f  50//18 9//22 7//18
f  7//19 9//23 50//19
f  56//24 6//20 8//24
f  8//25 6//21 56//25
f  6//20 56//24 53//20
f  53//21 56//25 6//21
f  59//13 46//10 60//10
f  60//9 46//9 59//12
f  61//17 49//13 59//13
f  59//12 49//12 61//16
f  51//11 60//10 46//10
f  46//9 60//9 51//8
f  9//22 50//18 62//22
f  62//23 50//19 9//23
f  49//13 61//17 52//17
f  52//16 61//16 49//12
f  8//24 64//26 56//24
f  56//25 64//27 8//25
f  60//10 51//11 58//11
f  58//8 51//8 60//9
f  62//22 11//28 9//22
f  9//23 11//29 62//23
f  67//19 52//17 61//17
f  61//16 52//16 67//18
f  52//17 67//19 54//19
f  54//18 67//18 52//16
f  64//26 8//24 10//26
f  10//27 8//25 64//27
f  57//15 58//11 51//11
f  51//8 58//8 57//14
f  11//28 62//22 69//28
f  69//29 62//23 11//29
f  67//19 66//23 54//19
f  54//18 66//22 67//18
f  10//26 71//30 64//26
f  64//27 71//31 10//27
f  55//21 65//15 57//15
f  57//14 65//14 55//20
f  73//25 55//21 63//25
f  63//24 55//20 73//24
f  58//11 57//15 65//15
f  65//14 57//14 58//8
f  69//28 13//31 11//28
f  11//29 13//30 69//29
f  66//23 67//19 74//23
f  74//22 67//18 66//22
f  71//30 10//26 12//30
f  12//31 10//27 71//31
f  76//27 63//25 68//27
f  68//26 63//24 76//26
f  65//15 55//21 70//21
f  70//20 55//20 65//14
f  55//21 73//25 70//21
f  70//20 73//24 55//20
f  63//25 76//27 73//25
f  73//24 76//26 63//24
f  13//31 69//28 77//31
f  77//30 69//29 13//30
f  74//23 72//29 66//23
f  66//22 72//28 74//22
f  12//30 79//29 71//30
f  71//31 79//28 12//31
f  68//27 81//31 76//27
f  76//26 81//30 68//26
f  77//31 15//27 13//31
f  13//30 15//26 77//30
f  72//29 74//23 80//29
f  80//28 74//22 72//28
f  79//29 12//30 14//29
f  14//28 12//31 79//28
f  81//31 68//27 75//31
f  75//30 68//26 81//30
f  15//27 77//31 85//27
f  85//26 77//30 15//26
f  80//29 82//30 72//29
f  72//28 82//31 80//28
f  14//29 86//23 79//29
f  79//28 86//22 14//28
f  87//28 75//31 78//28
f  78//29 75//30 87//29
f  75//31 87//28 81//31
f  81//30 87//29 75//30
f  85//27 17//25 15//27
f  15//26 17//24 85//26
f  82//30 80//29 84//30
f  84//31 80//28 82//31
f  86//23 14//29 16//23
f  16//22 14//28 86//22
f  91//22 78//28 83//22
f  83//23 78//29 91//23
f  78//28 91//22 87//28
f  87//29 91//23 78//29
f  17//25 85//27 93//25
f  93//24 85//26 17//24
f  84//30 88//26 82//30
f  82//31 88//27 84//31
f  16//23 94//19 86//23
f  86//22 94//18 16//22
f  83//22 96//18 91//22
f  91//23 96//19 83//23
f  93//25 19//21 17//25
f  17//24 19//20 93//24
f  88//26 84//30 90//26
f  90//27 84//31 88//27
f  94//19 16//23 18//19
f  18//18 16//22 94//18
f  96//18 83//22 89//18
f  89//19 83//23 96//19
f  90//26 92//24 88//26
f  88//27 92//25 90//27
f  19//21 93//25 100//21
f  100//20 93//24 19//20
f  20//17 94//19 18//19
f  18//18 94//18 20//16
f  98//16 96//18 89//18
f  89//19 96//19 98//17
f  92//24 90//26 95//24
f  95//25 90//27 92//25
f  95//24 97//20 92//24
f  92//25 97//21 95//25
f  104//15 19//21 100//21
f  100//20 19//20 104//14
f  94//19 20//17 101//6
f  101//5 20//16 94//18
f  96//18 98//16 102//16
f  102//17 98//17 96//19
f  97//20 95//24 99//20
f  99//21 95//25 97//21
f  19//21 104//15 21//15
f  21//14 104//14 19//20
f  101//6 20//17 27//6
f  27//5 20//16 101//5
f  105//12 102//16 98//16
f  98//17 102//17 105//13
f  106//14 97//20 99//20
f  99//21 97//21 106//15
f  97//20 106//14 103//14
f  103//15 106//15 97//21
f  110//11 21//15 104//15
f  104//14 21//14 110//8
f  22//13 25//17 20//17
f  20//16 25//16 22//12
f  27//6 20//17 25//17
f  25//16 20//16 27//5
f  29//6 101//6 27//6
f  27//5 101//5 29//5
f  102//16 105//12 108//12
f  108//13 105//13 102//17
f  111//8 103//14 106//14
f  106//15 103//15 111//11
f  21//15 110//11 23//11
f  23//8 110//8 21//14
f  103//14 111//8 107//8
f  107//11 111//11 103//15
f  25//17 22//13 31//32
f  31//33 22//12 25//16
f  109//9 108//12 105//12
f  105//13 108//13 109//10
f  114//10 23//11 110//11
f  110//8 23//8 114//9
f  113//9 107//8 111//8
f  111//11 107//11 113//10
f  107//8 113//9 109//9
f  109//10 113//10 107//11
f  23//11 114//10 24//10
f  24//9 114//9 23//8
f  24//10 112//13 22//13
f  22//12 112//12 24//9
f  31//32 22//13 112//13
f  112//12 22//12 31//33
f  108//12 109//9 113//9
f  113//10 109//10 108//13
f  112//13 24//10 114//10
f  114//9 24//9 112//12

# Mesh 'mesh1_mesh1-geometry' with 108 faces
g mesh1_mesh1-geometry
usemtl material_2_24
f  45//1 44//1 43//1
f  44//1 47//1 46//1
f  48//1 43//1 44//1
f  49//1 46//1 47//1
f  46//1 48//1 44//1
f  50//1 49//1 47//1
f  51//1 48//1 46//1
f  52//1 49//1 50//1
f  53//1 48//1 51//1
f  54//1 52//1 50//1
f  56//1 53//1 55//1
f  57//1 53//1 51//1
f  60//1 59//1 58//1
f  61//1 58//1 59//1
f  62//1 54//1 50//1
f  64//1 56//1 63//1
f  55//1 53//1 57//1
f  63//1 56//1 55//1
f  65//1 58//1 61//1
f  66//1 54//1 62//1
f  67//1 65//1 61//1
f  68//1 64//1 63//1
f  69//1 66//1 62//1
f  70//1 65//1 67//1
f  71//1 64//1 68//1
f  72//1 66//1 69//1
f  73//1 70//1 67//1
f  74//1 73//1 67//1
f  75//1 71//1 68//1
f  76//1 73//1 74//1
f  77//1 72//1 69//1
f  79//1 71//1 78//1
f  78//1 71//1 75//1
f  81//1 76//1 80//1
f  80//1 76//1 74//1
f  82//1 72//1 77//1
f  83//1 79//1 78//1
f  84//1 81//1 80//1
f  85//1 82//1 77//1
f  86//1 79//1 83//1
f  87//1 81//1 84//1
f  88//1 82//1 85//1
f  89//1 86//1 83//1
f  91//1 87//1 90//1
f  90//1 87//1 84//1
f  92//1 88//1 85//1
f  93//1 92//1 85//1
f  94//1 86//1 89//1
f  96//1 91//1 95//1
f  95//1 91//1 90//1
f  97//1 92//1 93//1
f  98//1 94//1 89//1
f  99//1 96//1 95//1
f  100//1 97//1 93//1
f  101//1 94//1 98//1
f  102//1 96//1 99//1
f  103//1 97//1 100//1
f  104//1 103//1 100//1
f  105//1 101//1 98//1
f  106//1 102//1 99//1
f  107//1 103//1 104//1
f  29//1 101//1 105//1
f  108//1 102//1 106//1
f  110//1 109//1 104//1
f  109//1 107//1 104//1
f  27//3 26//3 25//3
f  27//5 31//5 25//5
f  25//6 31//6 27//6
f  29//4 28//4 27//4
f  31//5 27//5 29//5
f  29//6 27//6 31//6
f  31//1 29//1 105//1
f  111//1 108//1 106//1
f  112//1 109//1 110//1
f  32//5 25//5 31//5
f  31//6 25//6 32//6
f  30//3 25//3 26//3
f  27//4 28//4 26//4
f  29//1 31//1 28//1
f  109//1 31//1 105//1
f  113//1 108//1 111//1
f  114//1 112//1 110//1
f  112//1 31//1 109//1
f  25//5 32//5 30//5
f  30//6 32//6 25//6
f  32//1 28//1 31//1
f  33//3 30//3 26//3
f  26//4 28//4 34//4
f  30//2 33//2 32//2
f  35//1 28//1 32//1
f  26//6 34//6 33//6
f  28//4 36//4 34//4
f  32//2 33//2 35//2
f  35//5 37//5 28//5
f  38//6 33//6 34//6
f  39//4 34//4 36//4
f  36//5 28//5 37//5
f  33//2 38//2 35//2
f  35//2 38//2 37//2
f  38//34 34//34 40//34
f  34//4 39//4 41//4
f  39//3 36//3 42//3
f  37//3 42//3 36//3
f  38//2 40//2 37//2
f  41//34 40//34 34//34
f  41//6 39//6 40//6
f  42//6 40//6 39//6
f  42//2 37//2 40//2

# Mesh 'mesh2_mesh2-geometry' with 1 faces
g mesh2_mesh2-geometry
usemtl material_2_0
l  115 116

# Mesh 'mesh3_mesh3-geometry' with 1 faces
g mesh3_mesh3-geometry
usemtl material_2_0
l  117 20

